<svg width="8" height="6" viewBox="0 0 8 6" fill="none" xmlns="http://www.w3.org/2000/svg">
<path d="M7.33248 1.11333C7.20758 0.989158 7.03861 0.919464 6.86248 0.919464C6.68636 0.919464 6.51739 0.989158 6.39249 1.11333L3.99915 3.47333L1.63915 1.11333C1.51424 0.989158 1.34528 0.919464 1.16915 0.919464C0.993028 0.919464 0.82406 0.989158 0.699152 1.11333C0.636666 1.1753 0.58707 1.24904 0.553224 1.33027C0.519378 1.41151 0.501953 1.49865 0.501953 1.58666C0.501953 1.67467 0.519378 1.7618 0.553224 1.84304C0.58707 1.92428 0.636666 1.99802 0.699152 2.05999L3.52582 4.88666C3.58779 4.94914 3.66153 4.99874 3.74277 5.03259C3.82401 5.06643 3.91114 5.08386 3.99915 5.08386C4.08716 5.08386 4.1743 5.06643 4.25554 5.03259C4.33678 4.99874 4.41051 4.94914 4.47249 4.88666L7.33248 2.05999C7.39497 1.99802 7.44457 1.92428 7.47841 1.84304C7.51226 1.7618 7.52968 1.67467 7.52968 1.58666C7.52968 1.49865 7.51226 1.41151 7.47841 1.33027C7.44457 1.24904 7.39497 1.1753 7.33248 1.11333Z" fill="#616161"/>
</svg>
