<svg width="7" height="12" viewBox="0 0 7 12" fill="none" xmlns="http://www.w3.org/2000/svg">
<path d="M6.49376 5.29289L2.25376 1.05289C2.1608 0.959165 2.0502 0.884771 1.92834 0.834002C1.80648 0.783233 1.67577 0.757095 1.54376 0.757095C1.41175 0.757095 1.28104 0.783233 1.15918 0.834002C1.03733 0.884771 0.926724 0.959165 0.833761 1.05289C0.64751 1.24026 0.542969 1.49371 0.542969 1.75789C0.542969 2.02208 0.64751 2.27553 0.833761 2.46289L4.37376 6.00289L0.833761 9.54289C0.64751 9.73026 0.542969 9.98371 0.542969 10.2479C0.542969 10.5121 0.64751 10.7655 0.833761 10.9529C0.927201 11.0456 1.03802 11.1189 1.15985 11.1687C1.28169 11.2184 1.41215 11.2437 1.54376 11.2429C1.67537 11.2437 1.80583 11.2184 1.92767 11.1687C2.04951 11.1189 2.16032 11.0456 2.25376 10.9529L6.49376 6.71289C6.58749 6.61993 6.66188 6.50933 6.71265 6.38747C6.76342 6.26561 6.78956 6.13491 6.78956 6.00289C6.78956 5.87088 6.76342 5.74018 6.71265 5.61832C6.66188 5.49646 6.58749 5.38586 6.49376 5.29289Z" fill="white"/>
</svg>
