<svg width="41" height="40" viewBox="0 0 41 40" fill="none" xmlns="http://www.w3.org/2000/svg">
<path d="M0.666016 30H0.686768C0.907715 35.5501 5.47925 40 11.0827 40C15.5037 40 19.2801 37.2274 20.7893 33.3333H27.3327C27.3327 37.0093 30.3234 40 33.9993 40C37.6753 40 40.666 37.0093 40.666 33.3333C40.666 31.6492 40.0337 30.1135 38.9993 28.9384V20.1424L33.8569 15H30.666V5C30.666 2.24243 28.4236 0 25.666 0H23.9993V3.33333H25.666C26.5852 3.33333 27.3327 4.08081 27.3327 5V15H21.8668L18.5334 5H0.666016V30ZM37.3327 33.3333C37.3327 35.1717 35.8377 36.6667 33.9993 36.6667C32.161 36.6667 30.666 35.1717 30.666 33.3333C30.666 31.495 32.161 30 33.9993 30C35.8377 30 37.3327 31.495 37.3327 33.3333ZM27.3327 18.3333H32.4751L34.9751 20.8333H30.666V24.1667H35.666V26.886C35.1318 26.7476 34.5759 26.6667 33.9993 26.6667C31.5384 26.6667 29.3892 28.0107 28.2344 30H21.4778C21.4835 29.8608 21.4993 29.7241 21.4993 29.5833C21.4993 26.6459 20.2717 23.9933 18.3092 22.0976L21.4469 18.3333H27.3327ZM12.3327 8.33333H16.1319L18.7918 16.3127L15.5594 20.1917C14.5601 19.7131 13.4769 19.3868 12.3335 19.2493V8.33333H12.3327ZM3.99935 8.33333H8.99935V19.3766C7.08936 19.766 5.37508 20.6877 3.99935 21.9674V8.33333ZM11.0827 22.5C14.9885 22.5 18.166 25.6775 18.166 29.5833C18.166 33.4892 14.9885 36.6667 11.0827 36.6667C7.17684 36.6667 3.99935 33.4892 3.99935 29.5833C3.99935 25.6775 7.17684 22.5 11.0827 22.5Z" fill="#616161"/>
</svg>
