<svg width="18" height="18" viewBox="0 0 18 18" fill="none" xmlns="http://www.w3.org/2000/svg">
<path d="M10.4099 8.99915L16.7099 2.70915C16.8982 2.52084 17.004 2.26545 17.004 1.99915C17.004 1.73285 16.8982 1.47745 16.7099 1.28915C16.5216 1.10084 16.2662 0.995056 15.9999 0.995056C15.7336 0.995056 15.4782 1.10084 15.2899 1.28915L8.99994 7.58915L2.70994 1.28915C2.52164 1.10084 2.26624 0.995056 1.99994 0.995056C1.73364 0.995056 1.47824 1.10084 1.28994 1.28915C1.10164 1.47745 0.995847 1.73285 0.995847 1.99915C0.995847 2.26545 1.10164 2.52084 1.28994 2.70915L7.58994 8.99915L1.28994 15.2891C1.19621 15.3821 1.12182 15.4927 1.07105 15.6146C1.02028 15.7364 0.994141 15.8671 0.994141 15.9991C0.994141 16.1312 1.02028 16.2619 1.07105 16.3837C1.12182 16.5056 1.19621 16.6162 1.28994 16.7091C1.3829 16.8029 1.4935 16.8773 1.61536 16.928C1.73722 16.9788 1.86793 17.0049 1.99994 17.0049C2.13195 17.0049 2.26266 16.9788 2.38452 16.928C2.50638 16.8773 2.61698 16.8029 2.70994 16.7091L8.99994 10.4091L15.2899 16.7091C15.3829 16.8029 15.4935 16.8773 15.6154 16.928C15.7372 16.9788 15.8679 17.0049 15.9999 17.0049C16.132 17.0049 16.2627 16.9788 16.3845 16.928C16.5064 16.8773 16.617 16.8029 16.7099 16.7091C16.8037 16.6162 16.8781 16.5056 16.9288 16.3837C16.9796 16.2619 17.0057 16.1312 17.0057 15.9991C17.0057 15.8671 16.9796 15.7364 16.9288 15.6146C16.8781 15.4927 16.8037 15.3821 16.7099 15.2891L10.4099 8.99915Z" fill="black"/>
</svg>
