<svg width="10" height="8" viewBox="0 0 10 8" fill="none" xmlns="http://www.w3.org/2000/svg">
<path d="M4.55093 0.908364C4.47346 0.830257 4.38129 0.768262 4.27974 0.725955C4.17819 0.683647 4.06927 0.661865 3.95926 0.661865C3.84925 0.661865 3.74033 0.683647 3.63878 0.725955C3.53723 0.768262 3.44506 0.830257 3.36759 0.908364L0.867592 3.40836C0.789485 3.48583 0.72749 3.578 0.685183 3.67955C0.642876 3.7811 0.621094 3.89002 0.621094 4.00003C0.621094 4.11004 0.642876 4.21896 0.685183 4.32051C0.72749 4.42206 0.789485 4.51423 0.867592 4.5917L3.36759 7.0917C3.44506 7.1698 3.53723 7.2318 3.63878 7.27411C3.74033 7.31641 3.84925 7.3382 3.95926 7.3382C4.06927 7.3382 4.17819 7.31641 4.27974 7.27411C4.38129 7.2318 4.47346 7.1698 4.55093 7.0917C4.62903 7.01423 4.69103 6.92206 4.73334 6.82051C4.77564 6.71896 4.79742 6.61004 4.79742 6.50003C4.79742 6.39002 4.77564 6.2811 4.73334 6.17955C4.69103 6.078 4.62903 5.98583 4.55093 5.90836L2.63426 4.00003L4.55093 2.0917C4.62903 2.01423 4.69103 1.92206 4.73334 1.82051C4.77564 1.71896 4.79742 1.61004 4.79742 1.50003C4.79742 1.39002 4.77564 1.2811 4.73334 1.17955C4.69103 1.078 4.62903 0.985833 4.55093 0.908364ZM7.21759 4.00003L9.16759 2.0917C9.32451 1.93478 9.41267 1.72195 9.41267 1.50003C9.41267 1.27811 9.32451 1.06528 9.16759 0.908364C9.01067 0.751444 8.79784 0.663287 8.57593 0.663287C8.35401 0.663287 8.14118 0.751444 7.98426 0.908364L5.48426 3.40836C5.40615 3.48583 5.34416 3.578 5.30185 3.67955C5.25954 3.7811 5.23776 3.89002 5.23776 4.00003C5.23776 4.11004 5.25954 4.21896 5.30185 4.32051C5.34416 4.42206 5.40615 4.51423 5.48426 4.5917L7.98426 7.0917C8.06173 7.1698 8.1539 7.2318 8.25545 7.27411C8.35699 7.31641 8.46592 7.3382 8.57593 7.3382C8.68594 7.3382 8.79486 7.31641 8.89641 7.27411C8.99796 7.2318 9.09012 7.1698 9.16759 7.0917C9.2457 7.01423 9.30769 6.92206 9.35 6.82051C9.39231 6.71896 9.41409 6.61004 9.41409 6.50003C9.41409 6.39002 9.39231 6.2811 9.35 6.17955C9.30769 6.078 9.2457 5.98583 9.16759 5.90836L7.21759 4.00003Z" fill="#333333"/>
</svg>
