<svg width="10" height="8" viewBox="0 0 10 8" fill="none" xmlns="http://www.w3.org/2000/svg">
<path d="M5.44907 0.908364C5.52654 0.830257 5.61871 0.768262 5.72026 0.725955C5.82181 0.683647 5.93073 0.661865 6.04074 0.661865C6.15075 0.661865 6.25967 0.683647 6.36122 0.725955C6.46277 0.768262 6.55494 0.830257 6.63241 0.908364L9.13241 3.40836C9.21051 3.48583 9.27251 3.578 9.31482 3.67955C9.35712 3.7811 9.37891 3.89002 9.37891 4.00003C9.37891 4.11004 9.35712 4.21896 9.31482 4.32051C9.27251 4.42206 9.21051 4.51423 9.13241 4.5917L6.63241 7.0917C6.55494 7.1698 6.46277 7.2318 6.36122 7.27411C6.25967 7.31641 6.15075 7.3382 6.04074 7.3382C5.93073 7.3382 5.82181 7.31641 5.72026 7.27411C5.61871 7.2318 5.52654 7.1698 5.44907 7.0917C5.37097 7.01423 5.30897 6.92206 5.26666 6.82051C5.22436 6.71896 5.20258 6.61004 5.20258 6.50003C5.20258 6.39002 5.22436 6.2811 5.26666 6.17955C5.30897 6.078 5.37097 5.98583 5.44907 5.90836L7.36574 4.00003L5.44907 2.0917C5.37097 2.01423 5.30897 1.92206 5.26666 1.82051C5.22436 1.71896 5.20258 1.61004 5.20258 1.50003C5.20258 1.39002 5.22436 1.2811 5.26666 1.17955C5.30897 1.078 5.37097 0.985833 5.44907 0.908364ZM2.78241 4.00003L0.832407 2.0917C0.675488 1.93478 0.587331 1.72195 0.587331 1.50003C0.587331 1.27811 0.675488 1.06528 0.832407 0.908364C0.989327 0.751444 1.20216 0.663287 1.42407 0.663287C1.64599 0.663287 1.85882 0.751444 2.01574 0.908364L4.51574 3.40836C4.59385 3.48583 4.65584 3.578 4.69815 3.67955C4.74046 3.7811 4.76224 3.89002 4.76224 4.00003C4.76224 4.11004 4.74046 4.21896 4.69815 4.32051C4.65584 4.42206 4.59385 4.51423 4.51574 4.5917L2.01574 7.0917C1.93827 7.1698 1.8461 7.2318 1.74455 7.27411C1.64301 7.31641 1.53408 7.3382 1.42407 7.3382C1.31406 7.3382 1.20514 7.31641 1.10359 7.27411C1.00204 7.2318 0.909877 7.1698 0.832407 7.0917C0.7543 7.01423 0.692306 6.92206 0.649998 6.82051C0.607691 6.71896 0.585908 6.61004 0.585908 6.50003C0.585908 6.39002 0.607691 6.2811 0.649998 6.17955C0.692306 6.078 0.7543 5.98583 0.832407 5.90836L2.78241 4.00003Z" fill="#333333"/>
</svg>
