<svg width="20" height="18" viewBox="0 0 20 18" fill="none" xmlns="http://www.w3.org/2000/svg">
<path d="M18.1759 2.01023C17.1159 0.947436 15.7107 0.298769 14.2142 0.181399C12.7178 0.0640285 11.2287 0.485695 10.0159 1.37023C8.74356 0.423866 7.15989 -0.00526015 5.58382 0.169266C4.00775 0.343792 2.55634 1.10901 1.52187 2.31081C0.487407 3.51262 -0.0532772 5.06175 0.00870166 6.64624C0.0706805 8.23074 0.730718 9.7329 1.8559 10.8502L8.0659 17.0702C8.58592 17.582 9.28629 17.8688 10.0159 17.8688C10.7455 17.8688 11.4459 17.582 11.9659 17.0702L18.1759 10.8502C19.3435 9.6755 19.9988 8.0865 19.9988 6.43023C19.9988 4.77396 19.3435 3.18496 18.1759 2.01023ZM16.7659 9.47023L10.5559 15.6802C10.4852 15.7516 10.4011 15.8082 10.3084 15.8469C10.2158 15.8855 10.1163 15.9054 10.0159 15.9054C9.91548 15.9054 9.81605 15.8855 9.72336 15.8469C9.63067 15.8082 9.54657 15.7516 9.4759 15.6802L3.2659 9.44023C2.48166 8.63857 2.04251 7.56169 2.04251 6.44023C2.04251 5.31876 2.48166 4.24188 3.2659 3.44023C4.06506 2.65122 5.14287 2.2088 6.2659 2.2088C7.38893 2.2088 8.46675 2.65122 9.2659 3.44023C9.35886 3.53396 9.46946 3.60835 9.59132 3.65912C9.71318 3.70989 9.84389 3.73603 9.9759 3.73603C10.1079 3.73603 10.2386 3.70989 10.3605 3.65912C10.4823 3.60835 10.5929 3.53396 10.6859 3.44023C11.4851 2.65122 12.5629 2.2088 13.6859 2.2088C14.8089 2.2088 15.8867 2.65122 16.6859 3.44023C17.4809 4.23138 17.9345 5.30242 17.9494 6.42391C17.9644 7.54541 17.5395 8.62816 16.7659 9.44023V9.47023Z" fill="#333333"/>
</svg>
