<svg width="6" height="10" viewBox="0 0 6 10" fill="none" xmlns="http://www.w3.org/2000/svg">
<path d="M2.4077 5.00004L5.3577 2.05004C5.51291 1.8939 5.60002 1.68269 5.60002 1.46254C5.60002 1.24238 5.51291 1.03117 5.3577 0.875039C5.28023 0.796932 5.18806 0.734936 5.08651 0.692629C4.98496 0.650322 4.87604 0.62854 4.76603 0.62854C4.65602 0.62854 4.5471 0.650322 4.44555 0.692629C4.344 0.734936 4.25183 0.796932 4.17436 0.875039L0.64103 4.40837C0.562923 4.48584 0.500928 4.57801 0.458621 4.67956C0.416313 4.78111 0.394531 4.89003 0.394531 5.00004C0.394531 5.11005 0.416313 5.21897 0.458621 5.32052C0.500928 5.42207 0.562923 5.51424 0.64103 5.59171L4.17436 9.16671C4.25223 9.24394 4.34458 9.30504 4.44611 9.34651C4.54764 9.38799 4.65636 9.40901 4.76603 9.40837C4.8757 9.40901 4.98442 9.38799 5.08595 9.34651C5.18748 9.30504 5.27983 9.24394 5.3577 9.16671C5.51291 9.01057 5.60002 8.79936 5.60002 8.57921C5.60002 8.35905 5.51291 8.14784 5.3577 7.99171L2.4077 5.00004Z" fill="#333333"/>
</svg>
