<svg width="200" height="24" viewBox="0 0 200 24" fill="none" xmlns="http://www.w3.org/2000/svg">
<path d="M50.0003 10.738V12.1093C50.0003 14.5013 49.2537 16.4135 47.7605 17.8457C46.2826 19.2627 44.4009 19.9712 42.1155 19.9712C39.632 19.9712 37.5675 19.1713 35.922 17.5714C34.2917 15.9716 33.4766 14.0062 33.4766 11.675C33.4766 9.34388 34.2841 7.37079 35.8991 5.75575C37.5294 4.14071 39.5177 3.33319 41.8641 3.33319C43.3573 3.33319 44.7209 3.66839 45.955 4.33878C47.2044 5.00918 48.1719 5.89288 48.8575 6.98989L45.7493 8.77253C45.3989 8.22402 44.8733 7.77455 44.1724 7.42412C43.4868 7.07369 42.7097 6.89847 41.8413 6.89847C40.4852 6.89847 39.3577 7.34794 38.4588 8.24688C37.5751 9.14581 37.1333 10.2961 37.1333 11.6979C37.1333 13.0844 37.5903 14.2195 38.5045 15.1032C39.4187 15.9716 40.6376 16.4059 42.1612 16.4059C44.279 16.4059 45.6427 15.5831 46.2521 13.9376H41.9784V10.738H50.0003Z" fill="#1D1D1B"/>
<path d="M63.1372 19.6512L62.3373 17.1372H56.3952L55.5953 19.6512H51.5958L57.0351 3.65315H61.6974L67.1367 19.6512H63.1372ZM57.4922 13.7091H61.2403L59.3663 7.8355L57.4922 13.7091Z" fill="#1D1D1B"/>
<path d="M77.0394 19.9712C74.6474 19.9712 72.659 19.1789 71.0745 17.5943C69.5051 15.9945 68.7205 14.0138 68.7205 11.6522C68.7205 9.29056 69.5051 7.31747 71.0745 5.7329C72.659 4.13309 74.6474 3.33319 77.0394 3.33319C78.4716 3.33319 79.7972 3.66839 81.0161 4.33878C82.235 4.99394 83.1949 5.89288 83.8957 7.0356L80.7418 8.86394C80.3914 8.23926 79.8886 7.75932 79.2335 7.42412C78.5783 7.07369 77.847 6.89847 77.0394 6.89847C75.6225 6.89847 74.4874 7.3327 73.6341 8.20117C72.7962 9.06963 72.3772 10.22 72.3772 11.6522C72.3772 13.0844 72.7962 14.2347 73.6341 15.1032C74.4874 15.9716 75.6225 16.4059 77.0394 16.4059C77.847 16.4059 78.5783 16.2307 79.2335 15.8802C79.9039 15.5298 80.4067 15.0499 80.7418 14.4404L83.8957 16.2688C83.2101 17.4115 82.2579 18.318 81.039 18.9884C79.8201 19.6436 78.4869 19.9712 77.0394 19.9712Z" fill="#1D1D1B"/>
<path d="M95.7796 3.65315H99.4363V19.6512H95.7796V13.2977H90.7517V19.6512H87.095V3.65315H90.7517V9.77812H95.7796V3.65315Z" fill="#1D1D1B"/>
<path d="M113.838 19.6512L113.038 17.1372H107.096L106.296 19.6512H102.297L107.736 3.65315H112.398L117.838 19.6512H113.838ZM108.193 13.7091H111.941L110.067 7.8355L108.193 13.7091Z" fill="#1D1D1B"/>
<path d="M124.344 16.1316H130.058V19.6512H120.687V3.65315H124.344V16.1316Z" fill="#1D1D1B"/>
<path d="M143.77 19.6512L142.97 17.1372H137.028L136.228 19.6512H132.229L137.668 3.65315H142.33L147.77 19.6512H143.77ZM138.125 13.7091H141.873L139.999 7.8355L138.125 13.7091Z" fill="#1D1D1B"/>
<path d="M153.544 19.6512L148.333 3.65315H152.333L155.875 15.4231L159.417 3.65315H163.417L158.206 19.6512H153.544Z" fill="#1D1D1B"/>
<path d="M167.807 19.3312C167.38 19.7578 166.87 19.9712 166.275 19.9712C165.681 19.9712 165.171 19.7578 164.744 19.3312C164.318 18.9046 164.104 18.3942 164.104 17.8C164.104 17.2058 164.318 16.6954 164.744 16.2688C165.171 15.8421 165.681 15.6288 166.275 15.6288C166.87 15.6288 167.38 15.8421 167.807 16.2688C168.233 16.6954 168.447 17.2058 168.447 17.8C168.447 18.3942 168.233 18.9046 167.807 19.3312Z" fill="#1D1D1B"/>
<path d="M180.749 19.6512L177.732 14.3947H175.995V19.6512H172.338V3.65315H178.737C180.261 3.65315 181.556 4.18642 182.623 5.25296C183.689 6.31949 184.222 7.61457 184.222 9.1382C184.222 10.1133 183.948 11.0199 183.4 11.8579C182.866 12.6806 182.158 13.3205 181.274 13.7776L184.679 19.6512H180.749ZM175.995 7.0813V11.1951H178.737C179.24 11.1951 179.667 10.997 180.017 10.6009C180.383 10.2047 180.566 9.71717 180.566 9.1382C180.566 8.55922 180.383 8.07166 180.017 7.67552C179.667 7.27938 179.24 7.0813 178.737 7.0813H175.995Z" fill="#1D1D1B"/>
<path d="M198.263 18.4856C197.105 19.476 195.627 19.9712 193.829 19.9712C192.031 19.9712 190.553 19.476 189.396 18.4856C188.238 17.4953 187.659 16.1621 187.659 14.4861V3.65315H191.315V14.1662C191.315 15.6593 192.153 16.4059 193.829 16.4059C195.505 16.4059 196.343 15.6593 196.343 14.1662V3.65315H200V14.4861C200 16.1621 199.421 17.4953 198.263 18.4856Z" fill="#1D1D1B"/>
<path d="M11.8419 16.9824H25.1478L21.4248 0.175354H8.12109L11.8419 16.9824Z" fill="#EA5284"/>
<path d="M7.78255 20.4025H21.0863L17.3655 3.59766H4.05957L7.78255 20.4025Z" fill="#E50051"/>
<path d="M3.72298 23.8247H17.0267L13.3037 7.01984H0L3.72298 23.8247Z" fill="#B90833"/>
</svg>
