<svg width="231" height="28" viewBox="0 0 231 28" fill="none" xmlns="http://www.w3.org/2000/svg">
<g opacity="0.7">
<path d="M58.0003 12.1469V13.7238C58.0003 16.4747 57.1417 18.6737 55.4246 20.3207C53.725 21.9502 51.5611 22.765 48.9328 22.765C46.0768 22.765 43.7026 21.8451 41.8103 20.0053C39.9355 18.1656 38.998 15.9053 38.998 13.2245C38.998 10.5436 39.9267 8.27459 41.784 6.41729C43.6588 4.56 45.9454 3.63135 48.6437 3.63135C50.3608 3.63135 51.929 4.01682 53.3483 4.78778C54.7851 5.55873 55.8977 6.57499 56.6862 7.83655L53.1117 9.88658C52.7087 9.2558 52.1043 8.73891 51.2983 8.33592C50.5098 7.93292 49.6162 7.73142 48.6174 7.73142C47.058 7.73142 45.7614 8.24831 44.7276 9.28208C43.7114 10.3159 43.2032 11.6387 43.2032 13.2507C43.2032 14.8452 43.7289 16.1506 44.7802 17.1668C45.8315 18.1656 47.2332 18.6649 48.9854 18.6649C51.4209 18.6649 52.9891 17.7188 53.69 15.8264H48.7751V12.1469H58.0003Z" fill="#333333"/>
<path d="M73.1078 22.3971L72.1879 19.506H65.3545L64.4346 22.3971H59.8351L66.0904 3.9993H71.452L77.7072 22.3971H73.1078ZM66.616 15.5636H70.9264L68.7712 8.809L66.616 15.5636Z" fill="#333333"/>
<path d="M89.0954 22.765C86.3445 22.765 84.0579 21.8539 82.2356 20.0316C80.4309 18.1919 79.5285 15.914 79.5285 13.1982C79.5285 10.4823 80.4309 8.21326 82.2356 6.39101C84.0579 4.55123 86.3445 3.63135 89.0954 3.63135C90.7424 3.63135 92.2668 4.01682 93.6685 4.78778C95.0703 5.54121 96.1741 6.57499 96.9801 7.88911L93.3531 9.99171C92.9501 9.27332 92.3719 8.72139 91.6185 8.33592C90.8651 7.93292 90.024 7.73142 89.0954 7.73142C87.4658 7.73142 86.1605 8.23078 85.1793 9.22952C84.2156 10.2283 83.7337 11.5511 83.7337 13.1982C83.7337 14.8452 84.2156 16.1681 85.1793 17.1668C86.1605 18.1656 87.4658 18.6649 89.0954 18.6649C90.024 18.6649 90.8651 18.4634 91.6185 18.0604C92.3894 17.6574 92.9677 17.1055 93.3531 16.4046L96.9801 18.5072C96.1916 19.8214 95.0965 20.8639 93.6948 21.6349C92.2931 22.3883 90.7599 22.765 89.0954 22.765Z" fill="#333333"/>
<path d="M110.647 3.9993H114.852V22.3971H110.647V15.0905H104.864V22.3971H100.659V3.9993H104.864V11.043H110.647V3.9993Z" fill="#333333"/>
<path d="M131.414 22.3971L130.494 19.506H123.661L122.741 22.3971H118.141L124.396 3.9993H129.758L136.013 22.3971H131.414ZM124.922 15.5636H129.232L127.077 8.809L124.922 15.5636Z" fill="#333333"/>
<path d="M143.496 18.3495H150.066V22.3971H139.29V3.9993H143.496V18.3495Z" fill="#333333"/>
<path d="M165.836 22.3971L164.916 19.506H158.082L157.163 22.3971H152.563L158.818 3.9993H164.18L170.435 22.3971H165.836ZM159.344 15.5636H163.654L161.499 8.809L159.344 15.5636Z" fill="#333333"/>
<path d="M177.075 22.3971L171.083 3.9993H175.682L179.756 17.5348L183.83 3.9993H188.429L182.437 22.3971H177.075Z" fill="#333333"/>
<path d="M193.478 22.0291C192.987 22.5197 192.4 22.765 191.717 22.765C191.033 22.765 190.446 22.5197 189.956 22.0291C189.465 21.5385 189.22 20.9515 189.22 20.2682C189.22 19.5848 189.465 18.9978 189.956 18.5072C190.446 18.0166 191.033 17.7713 191.717 17.7713C192.4 17.7713 192.987 18.0166 193.478 18.5072C193.968 18.9978 194.214 19.5848 194.214 20.2682C194.214 20.9515 193.968 21.5385 193.478 22.0291Z" fill="#333333"/>
<path d="M208.361 22.3971L204.892 16.3521H202.894V22.3971H198.689V3.9993H206.048C207.8 3.9993 209.289 4.61256 210.516 5.83908C211.743 7.06559 212.356 8.55494 212.356 10.3071C212.356 11.4285 212.04 12.471 211.41 13.4347C210.796 14.3809 209.982 15.1168 208.965 15.6424L212.881 22.3971H208.361ZM202.894 7.94168V12.6725H206.048C206.626 12.6725 207.117 12.4447 207.52 11.9892C207.94 11.5336 208.151 10.9729 208.151 10.3071C208.151 9.64128 207.94 9.08059 207.52 8.62502C207.117 8.16946 206.626 7.94168 206.048 7.94168H202.894Z" fill="#333333"/>
<path d="M228.502 21.0566C227.171 22.1956 225.471 22.765 223.404 22.765C221.336 22.765 219.636 22.1956 218.305 21.0566C216.973 19.9177 216.307 18.3846 216.307 16.4572V3.9993H220.513V16.0893C220.513 17.8064 221.476 18.6649 223.404 18.6649C225.331 18.6649 226.295 17.8064 226.295 16.0893V3.9993H230.5V16.4572C230.5 18.3846 229.834 19.9177 228.502 21.0566Z" fill="#333333"/>
<path opacity="0.5" d="M14.1187 19.3281H29.4206L25.1391 0H9.83984L14.1187 19.3281Z" fill="#333333"/>
<path opacity="0.7" d="M9.44939 23.2613H24.7487L20.4698 3.93579H5.16797L9.44939 23.2613Z" fill="#333333"/>
<path d="M4.78143 27.1969H20.0807L15.7993 7.87134H0.5L4.78143 27.1969Z" fill="#333333"/>
</g>
</svg>
