<svg width="39" height="40" viewBox="0 0 39 40" fill="none" xmlns="http://www.w3.org/2000/svg">
<path d="M16.334 36H6.33398C5.80355 36 5.29484 35.7893 4.91977 35.4142C4.5447 35.0391 4.33398 34.5304 4.33398 34V6C4.33398 5.46957 4.5447 4.96086 4.91977 4.58579C5.29484 4.21071 5.80355 4 6.33398 4H16.334V10C16.334 11.5913 16.9661 13.1174 18.0913 14.2426C19.2166 15.3679 20.7427 16 22.334 16H28.334C28.334 16.5304 28.5447 17.0391 28.9198 17.4142C29.2948 17.7893 29.8036 18 30.334 18C30.8644 18 31.3731 17.7893 31.7482 17.4142C32.1233 17.0391 32.334 16.5304 32.334 16V14C32.334 14 32.334 14 32.334 13.88C32.3132 13.6963 32.2729 13.5153 32.214 13.34V13.16C32.1178 12.9544 31.9896 12.7653 31.834 12.6L19.834 0.6C19.6687 0.444432 19.4796 0.316162 19.274 0.22C19.2143 0.21152 19.1537 0.21152 19.094 0.22L18.454 0H6.33398C4.74269 0 3.21656 0.632141 2.09134 1.75736C0.966126 2.88258 0.333984 4.4087 0.333984 6V34C0.333984 35.5913 0.966126 37.1174 2.09134 38.2426C3.21656 39.3679 4.74269 40 6.33398 40H16.334C16.8644 40 17.3731 39.7893 17.7482 39.4142C18.1233 39.0391 18.334 38.5304 18.334 38C18.334 37.4696 18.1233 36.9609 17.7482 36.5858C17.3731 36.2107 16.8644 36 16.334 36ZM20.334 6.82L25.514 12H22.334C21.8036 12 21.2948 11.7893 20.9198 11.4142C20.5447 11.0391 20.334 10.5304 20.334 10V6.82ZM10.334 12C9.80355 12 9.29484 12.2107 8.91977 12.5858C8.5447 12.9609 8.33398 13.4696 8.33398 14C8.33398 14.5304 8.5447 15.0391 8.91977 15.4142C9.29484 15.7893 9.80355 16 10.334 16H12.334C12.8644 16 13.3731 15.7893 13.7482 15.4142C14.1233 15.0391 14.334 14.5304 14.334 14C14.334 13.4696 14.1233 12.9609 13.7482 12.5858C13.3731 12.2107 12.8644 12 12.334 12H10.334ZM37.594 23.72C37.3616 23.532 37.0901 23.3985 36.7994 23.3293C36.5087 23.2601 36.2061 23.2569 35.914 23.32C35.1556 23.4798 34.3722 23.4787 33.6143 23.3168C32.8563 23.1549 32.1408 22.8357 31.514 22.38C31.1715 22.1297 30.7582 21.9948 30.334 21.9948C29.9098 21.9948 29.4965 22.1297 29.154 22.38C28.5266 22.8346 27.811 23.1531 27.0533 23.315C26.2956 23.4768 25.5124 23.4785 24.754 23.32C24.4586 23.2565 24.1527 23.2607 23.8592 23.3323C23.5657 23.404 23.2923 23.5412 23.0594 23.7336C22.8265 23.9261 22.6403 24.1688 22.5146 24.4436C22.389 24.7183 22.3272 25.018 22.334 25.32V30C22.3309 31.4316 22.6619 32.8442 23.3008 34.1254C23.9396 35.4066 24.8687 36.521 26.014 37.38L29.134 39.6C29.4802 39.8596 29.9012 40 30.334 40C30.7667 40 31.1878 39.8596 31.534 39.6L34.654 37.28C35.7858 36.4312 36.7067 35.3328 37.3449 34.0702C37.9832 32.8075 38.3216 31.4147 38.334 30V25.26C38.332 24.9646 38.2647 24.6733 38.1367 24.407C38.0088 24.1407 37.8234 23.9061 37.594 23.72ZM34.334 30C34.3434 30.8034 34.1679 31.5983 33.8211 32.3231C33.4743 33.0479 32.9655 33.6832 32.334 34.18L30.334 35.62L28.334 34.18C27.7025 33.6832 27.1936 33.0479 26.8468 32.3231C26.5 31.5983 26.3246 30.8034 26.334 30V27.44C27.7328 27.3771 29.0997 27.0012 30.334 26.34C31.5683 27.0012 32.9352 27.3771 34.334 27.44V30ZM16.334 28.1H10.334C9.80355 28.1 9.29484 28.3107 8.91977 28.6858C8.5447 29.0609 8.33398 29.5696 8.33398 30.1C8.33398 30.6304 8.5447 31.1391 8.91977 31.5142C9.29484 31.8893 9.80355 32.1 10.334 32.1H16.334C16.8644 32.1 17.3731 31.8893 17.7482 31.5142C18.1233 31.1391 18.334 30.6304 18.334 30.1C18.334 29.5696 18.1233 29.0609 17.7482 28.6858C17.3731 28.3107 16.8644 28.1 16.334 28.1ZM18.334 20.1H10.334C9.80355 20.1 9.29484 20.3107 8.91977 20.6858C8.5447 21.0609 8.33398 21.5696 8.33398 22.1C8.33398 22.6304 8.5447 23.1391 8.91977 23.5142C9.29484 23.8893 9.80355 24.1 10.334 24.1H18.334C18.8644 24.1 19.3731 23.8893 19.7482 23.5142C20.1233 23.1391 20.334 22.6304 20.334 22.1C20.334 21.5696 20.1233 21.0609 19.7482 20.6858C19.3731 20.3107 18.8644 20.1 18.334 20.1Z" fill="#616161"/>
</svg>
