<svg width="299" height="250" viewBox="0 0 299 250" fill="none" xmlns="http://www.w3.org/2000/svg">
<path d="M292.001 180.669C301.101 185.969 301.101 194.568 292.001 199.868L220.101 241.368C211.001 246.668 196.001 246.668 186.901 241.368L115.001 199.868C105.901 194.568 105.901 185.969 115.001 180.669L186.901 139.169C196.001 133.869 211.001 133.869 220.101 139.169L292.001 180.669Z" fill="url(#paint0_linear_1372_16067)"/>
<path d="M291.998 199.868L220.098 241.368C210.998 246.668 195.998 246.668 186.898 241.368L114.998 199.868C111.298 197.768 109.098 194.969 108.398 192.169C107.398 196.269 109.598 200.569 114.998 203.669L186.898 245.169C195.998 250.469 210.998 250.469 220.098 245.169L291.998 203.669C297.398 200.569 299.598 196.269 298.598 192.169C297.898 194.969 295.698 197.668 291.998 199.868Z" fill="url(#paint1_linear_1372_16067)"/>
<path opacity="0.2" d="M0 144.669L162.3 215.969L246.2 159.368L46.6 122.368L0 144.669Z" fill="url(#paint2_linear_1372_16067)"/>
<path d="M203.5 148.069C186.6 148.069 169.7 151.769 156.8 159.269C143.9 166.669 137.5 176.469 137.5 186.269C137.5 196.069 143.9 205.769 156.8 213.269C169.7 220.669 186.6 224.469 203.5 224.469C220.4 224.469 237.3 220.769 250.2 213.269C263.1 205.869 269.5 196.069 269.5 186.269C269.5 176.469 263.1 166.769 250.2 159.269C237.3 151.769 220.4 148.069 203.5 148.069Z" fill="url(#paint3_linear_1372_16067)"/>
<path d="M256.598 155.069C255.198 148.469 250.098 142.069 241.298 137.069C230.798 131.069 217.098 127.969 203.398 127.969C189.698 127.969 175.998 130.969 165.498 137.069C156.798 142.069 151.698 148.469 150.198 155.069L141.898 184.669C141.898 193.769 147.898 202.769 159.898 209.769C171.898 216.669 187.598 220.169 203.298 220.169C218.998 220.169 234.698 216.669 246.698 209.769C258.698 202.869 264.698 193.769 264.698 184.669L256.598 155.069Z" fill="url(#paint4_linear_1372_16067)"/>
<path d="M256.702 155.169L248.802 129.469C247.402 124.069 243.102 118.769 235.902 114.569C227.002 109.469 215.302 106.869 203.602 106.869C191.902 106.869 180.202 109.469 171.302 114.569C163.802 118.869 159.502 124.269 158.302 129.869L150.502 155.169C150.302 156.369 150.102 157.569 150.102 158.769C150.102 166.669 155.302 174.569 165.802 180.669C176.302 186.669 190.002 189.769 203.702 189.769C217.402 189.769 231.102 186.769 241.602 180.669C252.102 174.669 257.302 166.769 257.302 158.769C257.002 157.669 256.902 156.469 256.702 155.169Z" fill="url(#paint5_linear_1372_16067)"/>
<path d="M248.599 128.669L240.799 103.669C239.499 99.3685 235.999 95.1685 230.199 91.7685C222.799 87.4685 213.099 85.3685 203.399 85.3685C193.699 85.3685 183.999 87.4685 176.599 91.7685C170.399 95.3685 166.799 99.8685 165.799 104.569L158.099 129.469C157.799 130.569 157.699 131.769 157.699 132.869C157.699 139.669 162.199 146.369 171.099 151.569C179.999 156.769 191.699 159.269 203.399 159.269C215.099 159.269 226.799 156.669 235.699 151.569C244.599 146.369 249.099 139.669 249.099 132.869C249.199 131.569 248.999 130.169 248.599 128.669Z" fill="url(#paint6_linear_1372_16067)"/>
<path d="M240.499 102.768L233.099 78.8685C232.099 75.3685 229.299 72.0685 224.699 69.3685C218.799 65.9685 211.199 64.2685 203.499 64.2685C195.799 64.2685 188.099 65.9685 182.299 69.3685C177.499 72.1685 174.699 75.6685 173.799 79.2685L166.599 102.568C165.999 104.168 165.699 105.769 165.699 107.368C165.699 112.968 169.399 118.569 176.799 122.769C184.199 127.069 193.899 129.169 203.599 129.169C213.299 129.169 222.999 127.069 230.399 122.769C237.799 118.469 241.499 112.868 241.499 107.368C241.399 105.769 241.099 104.268 240.499 102.768Z" fill="url(#paint7_linear_1372_16067)"/>
<path d="M233.098 78.8685L225.298 53.8685C224.598 51.3685 222.498 48.9685 219.098 46.9685C214.798 44.4685 209.098 43.2685 203.398 43.2685C197.698 43.2685 192.098 44.5685 187.698 46.9685C184.298 48.9685 182.198 51.4685 181.498 54.0685L173.598 79.5685C173.398 80.2685 173.398 80.9685 173.398 81.6685C173.398 86.0685 176.298 90.5685 182.198 93.8685C188.098 97.2685 195.698 98.9685 203.398 98.9685C211.098 98.9685 218.798 97.2685 224.598 93.8685C230.498 90.4685 233.398 86.0685 233.398 81.6685C233.498 80.6685 233.398 79.7685 233.098 78.8685Z" fill="url(#paint8_linear_1372_16067)"/>
<path d="M203.501 43.1685C197.801 43.1685 192.201 44.4685 187.801 46.8685C183.501 49.3685 181.301 52.6685 181.301 55.8685C181.301 59.1685 183.501 62.3685 187.801 64.8685C192.101 67.3685 197.801 68.5685 203.501 68.5685C209.201 68.5685 214.801 67.3685 219.201 64.8685C223.501 62.3685 225.701 59.0685 225.701 55.8685C225.701 52.5685 223.501 49.3685 219.201 46.8685C214.801 44.4685 209.201 43.1685 203.501 43.1685Z" fill="url(#paint9_linear_1372_16067)"/>
<path d="M203.498 44.0685C198.498 44.0685 193.498 45.1685 189.598 47.3685C185.798 49.5685 183.898 52.4685 183.898 55.3685C183.898 58.2685 185.798 61.1685 189.598 63.3685C193.398 65.5685 198.498 66.6685 203.498 66.6685C208.498 66.6685 213.498 65.5685 217.398 63.3685C221.198 61.1685 223.198 58.2685 223.198 55.3685C223.198 52.4685 221.298 49.5685 217.398 47.3685C213.598 45.1685 208.498 44.0685 203.498 44.0685Z" fill="#FF8A45"/>
<path d="M122.6 79.3685L122 73.7685C122 73.7685 121.4 56.7685 127.1 42.9685C132.8 29.1685 142.2 21.5685 142.2 21.5685C142.2 21.5685 148.6 10.8685 157.7 6.76853C166.8 2.66853 170.6 4.66854 170.6 4.66854L178.3 3.36853C178.3 3.36853 183.1 0.968523 188 1.46852C192.9 1.96852 199.8 7.56853 199.8 7.56853C199.8 7.56853 206.7 9.76853 213.3 16.3685C219.9 22.8685 223.7 28.3685 223.7 28.3685C223.7 28.3685 243.1 35.9685 238.5 58.3685C233.9 80.7685 208.9 100.169 200.2 106.869C191.5 113.569 181.5 123.969 171.4 126.769C161.3 129.469 149.8 129.269 137.7 126.269C125.6 123.269 113.8 117.769 112.1 111.469C110.4 105.169 122.6 79.3685 122.6 79.3685Z" fill="#DF9400"/>
<path d="M122.202 77.9685L121.602 72.3685C121.602 72.3685 121.002 55.3685 126.702 41.5685C132.402 27.7685 141.802 20.1685 141.802 20.1685C141.802 20.1685 148.202 9.46853 157.302 5.36853C166.402 1.26853 170.202 3.26853 170.202 3.26853L177.902 1.96852C177.902 1.96852 182.702 -0.43147 187.602 0.0685299C192.502 0.56853 199.402 6.16854 199.402 6.16854C199.402 6.16854 206.302 8.36852 212.902 14.9685C219.502 21.4685 223.302 26.9685 223.302 26.9685C223.302 26.9685 242.702 34.5685 238.102 56.9685C233.502 79.3685 208.502 98.7685 199.802 105.469C191.102 112.169 181.102 122.569 171.002 125.369C160.902 128.069 149.402 127.869 137.302 124.869C125.202 121.869 113.402 116.369 111.702 110.069C110.002 103.669 122.202 77.9685 122.202 77.9685Z" fill="#F6C100"/>
<path d="M126.7 41.5685C132.4 27.7685 141.8 20.1685 141.8 20.1685C141.8 20.1685 148.2 9.46853 157.3 5.36853C166.4 1.26853 170.2 3.26853 170.2 3.26853L177.9 1.96852C177.9 1.96852 182.7 -0.43147 187.6 0.0685299C192.5 0.56853 199.4 6.16854 199.4 6.16854C199.4 6.16854 206.3 8.36852 212.9 14.9685C219.5 21.4685 223.3 26.9685 223.3 26.9685C223.3 26.9685 227.7 30.5685 231.8 43.6685C236 56.7685 230.8 68.5685 220 79.8685C209.2 91.1685 198.5 98.6685 184.5 102.069C170.5 105.469 161.6 103.869 161.6 103.869C160.3 106.669 154.8 105.969 147.7 104.269C140.6 102.569 135.7 100.469 135.7 100.469L134.6 97.9685C123.8 88.3685 122.1 77.9685 122.1 77.9685L121.5 72.3685C121.6 72.3685 121 55.3685 126.7 41.5685Z" fill="url(#paint10_radial_1372_16067)"/>
<path d="M147.8 104.269C140.7 102.569 135.8 100.469 135.8 100.469L134.7 97.9685C134.7 97.9685 131.7 83.5685 130.4 78.8685C129.1 74.1685 129.5 71.1685 130.6 69.5685C131.7 67.9685 132.5 67.0685 136.1 61.3685C139.7 55.6685 143.3 39.9685 153 25.1685C162.8 10.3685 177.9 1.96852 177.9 1.96852C177.9 1.96852 182.7 -0.43147 187.6 0.0685299C190.5 0.36853 194.1 2.46854 196.6 4.16854C184.6 2.56854 174 13.8685 164.7 24.9685C154.8 36.6685 148.9 54.7685 149 60.3685C149 65.8685 152 72.7685 152.6 73.1685C153.2 73.4685 154.5 74.1685 154.5 74.1685C154.5 74.1685 155.3 85.5685 156.9 90.5685C158.5 95.5685 161.8 104.069 161.8 104.069C160.3 106.669 154.8 105.969 147.8 104.269Z" fill="url(#paint11_linear_1372_16067)"/>
<path opacity="0.5" d="M158.803 105.669L149.303 76.7685C149.303 76.7685 146.403 67.8685 145.703 59.9685C145.003 52.0685 152.903 33.2685 162.503 20.9685C170.703 10.4685 181.203 2.26852 191.203 1.16852C193.103 1.96852 195.003 3.16852 196.503 4.16852C184.503 2.56852 173.903 13.8685 164.603 24.9685C154.703 36.6685 148.803 54.7685 148.903 60.3685C148.903 65.8685 151.903 72.7685 152.503 73.1685C153.103 73.4685 154.403 74.1685 154.403 74.1685C154.403 74.1685 155.203 85.5685 156.803 90.5685C158.403 95.5685 161.703 104.069 161.703 104.069C161.203 104.869 160.203 105.469 158.803 105.669Z" fill="#DF9400"/>
<path d="M134.702 97.9685C134.702 97.9685 131.702 83.5685 130.402 78.8685C129.502 75.5685 129.402 73.0685 129.802 71.3685C136.902 74.1685 145.302 75.4685 149.002 75.8685C149.202 76.4685 149.302 76.7685 149.302 76.7685L158.802 105.669C156.202 106.069 152.302 105.369 147.802 104.269C140.702 102.569 135.802 100.469 135.802 100.469L134.702 97.9685Z" fill="#F6B000"/>
<path opacity="0.3" d="M134.702 97.9685C134.702 97.9685 131.702 83.5685 130.402 78.8685C129.502 75.5685 129.402 73.0685 129.802 71.3685C136.902 74.1685 145.302 75.4685 149.002 75.8685C149.202 76.4685 149.302 76.7685 149.302 76.7685L158.802 105.669C156.202 106.069 152.302 105.369 147.802 104.269C140.702 102.569 135.802 100.469 135.802 100.469L134.702 97.9685Z" fill="#DF9400"/>
<path d="M129.7 42.1685C126.9 49.7685 127.4 56.2685 128.8 55.7685C131.7 54.8685 133.101 49.0685 133.101 49.0685C136.401 40.7685 139.4 33.5685 147.5 22.2685C155.6 10.9685 170.2 3.26853 170.2 3.26853C170.2 3.26853 166.3 1.16853 157.3 5.36853C151.6 7.96853 138.3 18.4685 129.7 42.1685Z" fill="#F6C100"/>
<path d="M196.002 88.4685C196.002 88.4685 191.302 90.8685 187.502 92.3685C183.802 93.8685 180.402 94.2685 180.802 96.4685C181.202 98.6685 183.202 103.469 183.202 103.469C183.202 103.469 183.702 106.269 190.202 104.469C196.702 102.669 201.102 99.8685 200.802 97.6685C200.502 95.5685 198.102 87.4685 196.002 88.4685Z" fill="#F6B000"/>
<path d="M187.5 92.4685C191.2 90.9685 196 88.5685 196 88.5685C196.4 88.3685 196.8 88.4685 197.3 88.8685C197.3 90.3685 196.5 91.4685 195.4 91.9685C193.8 92.5685 183.7 97.2685 183 97.1685C182.7 97.1685 181.8 96.4685 181 95.6685C181.5 94.1685 184.3 93.7685 187.5 92.4685Z" fill="#F6C100"/>
<path d="M196 91.4685C196.7 90.8685 197.2 89.9685 197.2 88.8685C198.9 90.4685 200.5 96.0685 200.8 97.7685C200.9 98.4685 200.5 99.2685 199.6 100.069C198.3 95.4685 196 91.4685 196 91.4685Z" fill="#DF9400"/>
<path d="M229.501 37.2685C229.501 37.2685 231.001 42.5685 230.301 44.4685C229.701 46.4685 229.001 48.0685 229.801 50.1685C230.701 52.1685 232.801 57.1685 232.801 57.1685C232.801 57.1685 235.701 56.9685 235.801 55.7685C235.901 54.5685 236.501 45.8685 235.701 44.2685C235.001 42.7685 231.801 36.7685 231.801 36.7685L229.501 37.2685Z" fill="#DF9400"/>
<path d="M229.502 49.0685C229.202 47.4685 229.802 46.0685 230.302 44.4685C230.902 42.4685 229.502 37.2685 229.502 37.2685L232.002 36.8685C232.002 36.8685 233.002 44.2685 232.702 46.2685C232.402 47.7685 231.102 48.4685 229.502 49.0685Z" fill="#F6C100"/>
<path d="M232.302 47.1685L235.602 56.2685C234.802 56.9685 232.902 57.0685 232.902 57.0685C232.902 57.0685 230.802 52.0685 229.902 50.0685C229.702 49.6685 229.602 49.3685 229.602 48.9685C230.802 48.5685 231.802 48.1685 232.302 47.1685Z" fill="#F6B000"/>
<path d="M124.601 81.5685C124.601 81.5685 121.901 77.3685 121.701 73.4685L120.601 73.7685C120.601 73.7685 120.501 78.5685 120.901 80.8685C121.301 83.1685 124.301 90.9685 124.301 90.9685L127.601 89.9685L124.601 81.5685Z" fill="#DF9400"/>
<path d="M120.901 80.8685C120.501 78.5685 120.601 73.7685 120.601 73.7685L121.701 73.4685C121.801 77.3685 124.601 81.5685 124.601 81.5685C124.601 81.5685 122.801 82.4685 121.201 81.9685C121.001 81.5685 120.901 81.1685 120.901 80.8685Z" fill="#F6C100"/>
<path d="M161.9 64.4685C163.4 65.0685 168.7 59.9685 172.2 52.5685C175.7 45.1685 187.3 28.6685 190.3 25.7685C196.7 19.2685 199.4 17.4685 201 16.2685C202.6 15.0685 208.6 12.2685 206.1 10.8685C203.6 9.36854 193 7.36854 181.4 17.8685C169.8 28.3685 166.5 36.2685 163.1 45.5685C159.8 54.8685 159.6 63.6685 161.9 64.4685Z" fill="url(#paint12_radial_1372_16067)"/>
<path opacity="0.5" d="M164.3 60.8685C166.9 57.8685 171.3 41.4685 183.7 27.1685C194.3 14.8685 199.9 11.7685 203.2 9.96851C204.5 10.1685 205.5 10.5685 206 10.8685C208.5 12.3685 202.5 15.0685 200.9 16.2685C199.3 17.4685 196.5 19.2685 190.2 25.7685C187.3 28.6685 175.6 45.1685 172.1 52.5685C168.6 59.9685 163.4 65.0685 161.8 64.4685C161.5 64.3685 161.2 64.0685 161 63.6685C162 63.0685 163.2 62.1685 164.3 60.8685Z" fill="#DF9400"/>
<path opacity="0.5" d="M128.802 55.7685C128.402 55.8685 128.102 55.4685 127.902 54.6685C128.802 53.9685 130.402 52.7685 130.802 51.4685C131.502 49.5685 134.502 34.7685 145.302 21.0685C152.202 12.3685 161.102 6.16851 166.602 2.76851C169.002 2.66851 170.102 3.26851 170.102 3.26851C170.102 3.26851 155.502 11.0685 147.402 22.2685C139.302 33.5685 136.302 40.7685 133.002 49.0685C133.102 49.0685 131.802 54.8685 128.802 55.7685Z" fill="#DF9400"/>
<defs>
<linearGradient id="paint0_linear_1372_16067" x1="287.615" y1="189.719" x2="87.3262" y2="190.987" gradientUnits="userSpaceOnUse">
<stop stop-color="#FF9D59"/>
<stop offset="0.8861" stop-color="#E34F29"/>
</linearGradient>
<linearGradient id="paint1_linear_1372_16067" x1="291.187" y1="220.653" x2="106.366" y2="220.653" gradientUnits="userSpaceOnUse">
<stop offset="0.4268" stop-color="#D97733"/>
<stop offset="0.5091" stop-color="#BD2903"/>
</linearGradient>
<linearGradient id="paint2_linear_1372_16067" x1="76.1081" y1="97.5394" x2="172.617" y2="209.449" gradientUnits="userSpaceOnUse">
<stop stop-color="white"/>
<stop offset="1"/>
</linearGradient>
<linearGradient id="paint3_linear_1372_16067" x1="137.484" y1="186.184" x2="286.896" y2="186.184" gradientUnits="userSpaceOnUse">
<stop stop-color="#E34F29"/>
<stop offset="0.7754" stop-color="#FFD9BF"/>
<stop offset="1" stop-color="#FF6B03"/>
</linearGradient>
<linearGradient id="paint4_linear_1372_16067" x1="246.499" y1="174.012" x2="159.191" y2="174.012" gradientUnits="userSpaceOnUse">
<stop stop-color="#FF9D59"/>
<stop offset="1" stop-color="#E34F29"/>
</linearGradient>
<linearGradient id="paint5_linear_1372_16067" x1="246.5" y1="148.354" x2="159.196" y2="148.354" gradientUnits="userSpaceOnUse">
<stop stop-color="#E9F1F5"/>
<stop offset="1" stop-color="#A9ACAD"/>
</linearGradient>
<linearGradient id="paint6_linear_1372_16067" x1="246.499" y1="122.408" x2="159.192" y2="122.408" gradientUnits="userSpaceOnUse">
<stop stop-color="#FF9D59"/>
<stop offset="1" stop-color="#E34F29"/>
</linearGradient>
<linearGradient id="paint7_linear_1372_16067" x1="246.501" y1="96.7519" x2="159.19" y2="96.7519" gradientUnits="userSpaceOnUse">
<stop stop-color="#E9F1F5"/>
<stop offset="1" stop-color="#A9ACAD"/>
</linearGradient>
<linearGradient id="paint8_linear_1372_16067" x1="246.497" y1="71.0918" x2="159.193" y2="71.0918" gradientUnits="userSpaceOnUse">
<stop stop-color="#FF9D59"/>
<stop offset="1" stop-color="#E34F29"/>
</linearGradient>
<linearGradient id="paint9_linear_1372_16067" x1="181.362" y1="55.9997" x2="232.325" y2="55.9997" gradientUnits="userSpaceOnUse">
<stop stop-color="#FF6B03"/>
<stop offset="0.7032" stop-color="#FFE6D4"/>
<stop offset="1" stop-color="#FF6B03"/>
</linearGradient>
<radialGradient id="paint10_radial_1372_16067" cx="0" cy="0" r="1" gradientUnits="userSpaceOnUse" gradientTransform="translate(130.521 20.9718) rotate(163.058) scale(104.92 104.92)">
<stop stop-color="#F6C100"/>
<stop offset="0.6979" stop-color="#F6B000"/>
<stop offset="1" stop-color="#DF9400"/>
</radialGradient>
<linearGradient id="paint11_linear_1372_16067" x1="174.232" y1="-2.9163" x2="152.479" y2="77.1628" gradientUnits="userSpaceOnUse">
<stop stop-color="#F6B000"/>
<stop offset="0.5775" stop-color="#FFC800"/>
<stop offset="1" stop-color="#F6B000"/>
</linearGradient>
<radialGradient id="paint12_radial_1372_16067" cx="0" cy="0" r="1" gradientUnits="userSpaceOnUse" gradientTransform="translate(256.575 87.7551) rotate(163.058) scale(103.876 103.876)">
<stop offset="0.9228" stop-color="#F6B000"/>
<stop offset="1" stop-color="#FFC800"/>
</radialGradient>
</defs>
</svg>
