<svg width="18" height="17" viewBox="0 0 18 17" fill="none" xmlns="http://www.w3.org/2000/svg">
<path d="M15.2 9.47717C15.0167 9.47717 14.825 9.41883 14.6417 9.37717C14.2704 9.29535 13.9055 9.18673 13.55 9.05217C13.1634 8.91152 12.7384 8.91883 12.3569 9.07267C11.9754 9.22651 11.6642 9.51603 11.4833 9.8855L11.3 10.2605C10.4883 9.80898 9.74248 9.24819 9.08333 8.59383C8.42897 7.93468 7.86818 7.18883 7.41666 6.37716L7.76666 6.14383C8.13613 5.96293 8.42564 5.65177 8.57949 5.27024C8.73333 4.88871 8.74063 4.46376 8.59999 4.07716C8.46768 3.72085 8.35911 3.35616 8.27499 2.9855C8.23333 2.80216 8.19999 2.6105 8.17499 2.41883C8.0738 1.83185 7.76635 1.30028 7.30801 0.919864C6.84967 0.539445 6.27057 0.335172 5.67499 0.343831H3.17499C2.81585 0.340459 2.4602 0.414509 2.13225 0.56094C1.8043 0.707371 1.51175 0.922745 1.27452 1.1924C1.03728 1.46205 0.860938 1.77966 0.757482 2.12359C0.654027 2.46753 0.625892 2.82971 0.674992 3.1855C1.11894 6.67665 2.71335 9.9204 5.20637 12.4044C7.69939 14.8883 10.9489 16.4709 14.4417 16.9022H14.7583C15.3728 16.9031 15.9662 16.6776 16.425 16.2688C16.6886 16.033 16.8992 15.744 17.0429 15.4208C17.1865 15.0975 17.26 14.7475 17.2583 14.3938V11.8938C17.2481 11.315 17.0373 10.7576 16.6619 10.3169C16.2866 9.87615 15.7698 9.57935 15.2 9.47717ZM15.6167 14.4772C15.6165 14.5955 15.5912 14.7124 15.5423 14.8202C15.4935 14.9279 15.4222 15.0241 15.3333 15.1022C15.2405 15.183 15.1316 15.2433 15.0139 15.2792C14.8961 15.3151 14.7721 15.3258 14.65 15.3105C11.5291 14.9103 8.63019 13.4826 6.41059 11.2524C4.19099 9.02224 2.777 6.11661 2.39166 2.99383C2.3784 2.87176 2.39002 2.74827 2.42583 2.63082C2.46164 2.51337 2.52088 2.4044 2.59999 2.3105C2.67808 2.22161 2.77421 2.15037 2.88197 2.10151C2.98974 2.05266 3.10667 2.02731 3.22499 2.02716H5.72499C5.91878 2.02285 6.10801 2.08623 6.26011 2.20639C6.41221 2.32655 6.51767 2.49597 6.55833 2.6855C6.59166 2.91328 6.63333 3.13828 6.68333 3.3605C6.77959 3.79978 6.90771 4.23148 7.06666 4.65216L5.89999 5.19383C5.80024 5.2396 5.71051 5.30462 5.63596 5.38516C5.5614 5.4657 5.50349 5.56018 5.46555 5.66316C5.42761 5.76614 5.41039 5.87561 5.41487 5.98527C5.41935 6.09493 5.44544 6.20262 5.49166 6.30216C6.69099 8.87113 8.75603 10.9362 11.325 12.1355C11.5279 12.2188 11.7554 12.2188 11.9583 12.1355C12.0623 12.0983 12.1578 12.0409 12.2393 11.9665C12.3208 11.8921 12.3868 11.8023 12.4333 11.7022L12.95 10.5355C13.3808 10.6896 13.8205 10.8176 14.2667 10.9188C14.4889 10.9688 14.7139 11.0105 14.9417 11.0438C15.1312 11.0845 15.3006 11.1899 15.4208 11.342C15.5409 11.4941 15.6043 11.6834 15.6 11.8772L15.6167 14.4772Z" fill="white"/>
</svg>
