<svg width="40" height="41" viewBox="0 0 40 41" fill="none" xmlns="http://www.w3.org/2000/svg">
<rect y="0.5" width="40" height="40" rx="20" fill="#F4F6FA"/>
<path d="M26.705 15.685C26.612 15.5913 26.5014 15.5169 26.3796 15.4661C26.2577 15.4153 26.127 15.3892 25.995 15.3892C25.863 15.3892 25.7323 15.4153 25.6104 15.4661C25.4886 15.5169 25.378 15.5913 25.285 15.685L17.835 23.145L14.705 20.005C14.6085 19.9118 14.4945 19.8385 14.3697 19.7892C14.2448 19.74 14.1115 19.7159 13.9773 19.7182C13.8431 19.7206 13.7107 19.7493 13.5876 19.8028C13.4646 19.8563 13.3532 19.9335 13.26 20.03C13.1668 20.1265 13.0934 20.2405 13.0442 20.3653C12.995 20.4902 12.9709 20.6235 12.9732 20.7577C12.9755 20.8919 13.0043 21.0243 13.0578 21.1474C13.1113 21.2704 13.1885 21.3818 13.285 21.475L17.125 25.315C17.218 25.4087 17.3286 25.4831 17.4504 25.5339C17.5723 25.5847 17.703 25.6108 17.835 25.6108C17.967 25.6108 18.0977 25.5847 18.2196 25.5339C18.3414 25.4831 18.452 25.4087 18.545 25.315L26.705 17.155C26.8065 17.0614 26.8875 16.9477 26.9429 16.8212C26.9983 16.6947 27.0269 16.5581 27.0269 16.42C27.0269 16.2819 26.9983 16.1453 26.9429 16.0188C26.8875 15.8923 26.8065 15.7786 26.705 15.685V15.685Z" fill="#333333"/>
</svg>
