<svg width="30" height="30" viewBox="0 0 30 30" fill="none" xmlns="http://www.w3.org/2000/svg">
<path d="M8.25 12H9.75C10.1478 12 10.5294 11.842 10.8107 11.5607C11.092 11.2794 11.25 10.8978 11.25 10.5C11.25 10.1022 11.092 9.72064 10.8107 9.43934C10.5294 9.15804 10.1478 9 9.75 9H8.25C7.85218 9 7.47064 9.15804 7.18934 9.43934C6.90804 9.72064 6.75 10.1022 6.75 10.5C6.75 10.8978 6.90804 11.2794 7.18934 11.5607C7.47064 11.842 7.85218 12 8.25 12ZM14.25 21H8.25C7.85218 21 7.47064 21.158 7.18934 21.4393C6.90804 21.7206 6.75 22.1022 6.75 22.5C6.75 22.8978 6.90804 23.2794 7.18934 23.5607C7.47064 23.842 7.85218 24 8.25 24H14.25C14.6478 24 15.0294 23.842 15.3107 23.5607C15.592 23.2794 15.75 22.8978 15.75 22.5C15.75 22.1022 15.592 21.7206 15.3107 21.4393C15.0294 21.158 14.6478 21 14.25 21ZM14.25 15H8.25C7.85218 15 7.47064 15.158 7.18934 15.4393C6.90804 15.7206 6.75 16.1022 6.75 16.5C6.75 16.8978 6.90804 17.2794 7.18934 17.5607C7.47064 17.842 7.85218 18 8.25 18H14.25C14.6478 18 15.0294 17.842 15.3107 17.5607C15.592 17.2794 15.75 16.8978 15.75 16.5C15.75 16.1022 15.592 15.7206 15.3107 15.4393C15.0294 15.158 14.6478 15 14.25 15ZM24.63 11.07C24.7449 10.7968 24.7763 10.4958 24.7202 10.2048C24.6641 9.9138 24.5231 9.64594 24.315 9.435L15.315 0.435C15.191 0.318324 15.0492 0.222121 14.895 0.15C14.8502 0.14364 14.8048 0.14364 14.76 0.15L14.34 0H5.25C4.05653 0 2.91193 0.474106 2.06802 1.31802C1.22411 2.16193 0.75 3.30653 0.75 4.5V25.5C0.75 26.6935 1.22411 27.8381 2.06802 28.682C2.91193 29.5259 4.05653 30 5.25 30H14.25C14.6478 30 15.0294 29.842 15.3107 29.5607C15.592 29.2794 15.75 28.8978 15.75 28.5C15.75 28.1022 15.592 27.7206 15.3107 27.4393C15.0294 27.158 14.6478 27 14.25 27H5.25C4.85218 27 4.47064 26.842 4.18934 26.5607C3.90804 26.2794 3.75 25.8978 3.75 25.5V4.5C3.75 4.10218 3.90804 3.72064 4.18934 3.43934C4.47064 3.15804 4.85218 3 5.25 3H12.75V7.5C12.75 8.69347 13.2241 9.83807 14.068 10.682C14.9119 11.5259 16.0565 12 17.25 12H23.25C23.5461 11.9985 23.8352 11.9094 24.0808 11.7439C24.3264 11.5784 24.5175 11.3439 24.63 11.07ZM17.25 9C16.8522 9 16.4706 8.84196 16.1893 8.56066C15.908 8.27936 15.75 7.89782 15.75 7.5V5.115L19.635 9H17.25ZM27.75 15H20.25C19.8522 15 19.4706 15.158 19.1893 15.4393C18.908 15.7206 18.75 16.1022 18.75 16.5V28.5C18.7507 28.7714 18.825 29.0374 18.965 29.2699C19.105 29.5023 19.3055 29.6925 19.545 29.82C19.7796 29.9404 20.0417 29.9969 20.3051 29.9838C20.5684 29.9706 20.8236 29.8882 21.045 29.745L24 27.795L27 29.745C27.2241 29.8746 27.4779 29.944 27.7368 29.9464C27.9956 29.9489 28.2507 29.8843 28.4772 29.759C28.7037 29.6337 28.8939 29.4518 29.0293 29.2312C29.1647 29.0106 29.2408 28.7587 29.25 28.5V16.5C29.25 16.1022 29.092 15.7206 28.8107 15.4393C28.5294 15.158 28.1478 15 27.75 15ZM26.25 25.68L24.84 24.735C24.5919 24.5673 24.2994 24.4777 24 24.4777C23.7006 24.4777 23.4081 24.5673 23.16 24.735L21.75 25.68V18H26.25V25.68Z" fill="#616161"/>
</svg>
