<svg width="6" height="10" viewBox="0 0 6 10" fill="none" xmlns="http://www.w3.org/2000/svg">
<path d="M3.5923 5.00004L0.642304 2.05004C0.487094 1.8939 0.399977 1.68269 0.399977 1.46254C0.399977 1.24238 0.487094 1.03117 0.642304 0.875039C0.719773 0.796932 0.81194 0.734936 0.91349 0.692629C1.01504 0.650322 1.12396 0.62854 1.23397 0.62854C1.34398 0.62854 1.4529 0.650322 1.55445 0.692629C1.656 0.734936 1.74817 0.796932 1.82564 0.875039L5.35897 4.40837C5.43708 4.48584 5.49907 4.57801 5.54138 4.67956C5.58369 4.78111 5.60547 4.89003 5.60547 5.00004C5.60547 5.11005 5.58369 5.21897 5.54138 5.32052C5.49907 5.42207 5.43708 5.51424 5.35897 5.59171L1.82564 9.16671C1.74777 9.24394 1.65542 9.30504 1.55389 9.34651C1.45236 9.38799 1.34364 9.40901 1.23397 9.40837C1.1243 9.40901 1.01558 9.38799 0.914049 9.34651C0.812517 9.30504 0.72017 9.24394 0.642304 9.16671C0.487094 9.01057 0.399977 8.79936 0.399977 8.57921C0.399977 8.35905 0.487094 8.14784 0.642304 7.99171L3.5923 5.00004Z" fill="#333333"/>
</svg>
