<svg width="16" height="16" viewBox="0 0 16 16" fill="none" xmlns="http://www.w3.org/2000/svg">
<path d="M15.7753 14.6461L12.8091 11.7038C13.9605 10.2682 14.5181 8.44601 14.3672 6.61191C14.2164 4.7778 13.3685 3.0712 11.998 1.84302C10.6275 0.614836 8.83851 -0.0415702 6.9989 0.00876817C5.15928 0.0591066 3.40887 0.812364 2.10758 2.11365C0.806291 3.41494 0.0530336 5.16536 0.00269517 7.00497C-0.0476432 8.84458 0.608763 10.6336 1.83694 12.0041C3.06512 13.3746 4.77172 14.2224 6.60583 14.3733C8.43994 14.5242 10.2621 13.9666 11.6978 12.8152L14.64 15.7574C14.7143 15.8324 14.8028 15.8918 14.9002 15.9324C14.9976 15.973 15.1021 15.9939 15.2077 15.9939C15.3132 15.9939 15.4177 15.973 15.5152 15.9324C15.6126 15.8918 15.701 15.8324 15.7753 15.7574C15.9194 15.6083 16 15.4091 16 15.2018C16 14.9944 15.9194 14.7952 15.7753 14.6461ZM7.21243 12.8152C6.10552 12.8152 5.02346 12.4869 4.10309 11.872C3.18272 11.257 2.46538 10.3829 2.04178 9.36026C1.61818 8.3376 1.50735 7.2123 1.7233 6.12665C1.93925 5.041 2.47228 4.04377 3.25499 3.26106C4.0377 2.47835 5.03493 1.94532 6.12058 1.72937C7.20622 1.51342 8.33153 1.62426 9.35419 2.04785C10.3768 2.47145 11.2509 3.18879 11.8659 4.10916C12.4809 5.02953 12.8091 6.11159 12.8091 7.21851C12.8091 8.70284 12.2195 10.1264 11.1699 11.176C10.1203 12.2255 8.69676 12.8152 7.21243 12.8152Z" fill="#333333"/>
</svg>
