<svg width="20" height="20" viewBox="0 0 20 20" fill="none" xmlns="http://www.w3.org/2000/svg">
<path d="M6.71 5.70752L9 3.40752V12.9975C9 13.2627 9.10536 13.5171 9.29289 13.7046C9.48043 13.8922 9.73478 13.9975 10 13.9975C10.2652 13.9975 10.5196 13.8922 10.7071 13.7046C10.8946 13.5171 11 13.2627 11 12.9975V3.40752L13.29 5.70752C13.383 5.80124 13.4936 5.87564 13.6154 5.92641C13.7373 5.97718 13.868 6.00331 14 6.00331C14.132 6.00331 14.2627 5.97718 14.3846 5.92641C14.5064 5.87564 14.617 5.80124 14.71 5.70752C14.8037 5.61455 14.8781 5.50395 14.9289 5.38209C14.9797 5.26023 15.0058 5.12953 15.0058 4.99752C15.0058 4.8655 14.9797 4.7348 14.9289 4.61294C14.8781 4.49108 14.8037 4.38048 14.71 4.28752L10.71 0.287516C10.6149 0.196475 10.5028 0.12511 10.38 0.077516C10.1365 -0.0225021 9.86346 -0.0225021 9.62 0.077516C9.49725 0.12511 9.3851 0.196475 9.29 0.287516L5.29 4.28752C5.19676 4.38075 5.1228 4.49145 5.07234 4.61327C5.02188 4.73509 4.99591 4.86566 4.99591 4.99752C4.99591 5.12938 5.02188 5.25994 5.07234 5.38177C5.1228 5.50359 5.19676 5.61428 5.29 5.70752C5.38324 5.80075 5.49393 5.87472 5.61575 5.92518C5.73757 5.97564 5.86814 6.00161 6 6.00161C6.13186 6.00161 6.26243 5.97564 6.38425 5.92518C6.50607 5.87472 6.61676 5.80075 6.71 5.70752ZM19 11.9975C18.7348 11.9975 18.4804 12.1029 18.2929 12.2904C18.1054 12.4779 18 12.7323 18 12.9975V16.9975C18 17.2627 17.8946 17.5171 17.7071 17.7046C17.5196 17.8922 17.2652 17.9975 17 17.9975H3C2.73478 17.9975 2.48043 17.8922 2.29289 17.7046C2.10536 17.5171 2 17.2627 2 16.9975V12.9975C2 12.7323 1.89464 12.4779 1.70711 12.2904C1.51957 12.1029 1.26522 11.9975 1 11.9975C0.734784 11.9975 0.48043 12.1029 0.292893 12.2904C0.105357 12.4779 0 12.7323 0 12.9975V16.9975C0 17.7932 0.316071 18.5562 0.87868 19.1188C1.44129 19.6814 2.20435 19.9975 3 19.9975H17C17.7956 19.9975 18.5587 19.6814 19.1213 19.1188C19.6839 18.5562 20 17.7932 20 16.9975V12.9975C20 12.7323 19.8946 12.4779 19.7071 12.2904C19.5196 12.1029 19.2652 11.9975 19 11.9975Z" fill="#333333"/>
</svg>
