<svg width="36" height="30" viewBox="0 0 36 30" fill="none" xmlns="http://www.w3.org/2000/svg">
<path d="M35.4691 15.6676C35.447 15.6494 35.4149 15.6436 35.3899 15.652C35.3594 15.6614 35.3314 15.6695 35.305 15.6773L35.2921 15.681C35.227 15.7001 35.1707 15.7164 35.115 15.7388C34.235 16.0884 33.5421 16.6875 32.9968 17.5702C32.8621 17.7883 32.7578 18.0149 32.6747 18.241C32.811 17.4806 32.8425 17.1843 32.8667 16.3335C32.8678 16.2978 32.8678 16.2614 32.8678 16.2254C32.8678 16.127 32.8678 16.034 32.8893 15.9491C32.9151 15.8486 32.9669 15.7483 33.0171 15.6513C33.0312 15.6238 33.0454 15.5964 33.057 15.5723C33.0611 15.5675 33.0741 15.5595 33.0792 15.5588C33.3309 15.5203 33.5535 15.4135 33.7598 15.2321C33.9677 15.0485 34.1387 14.8238 34.2681 14.5639C34.7325 13.6326 34.9649 12.6032 34.9591 11.5047C34.9585 11.3987 34.9461 11.2955 34.9324 11.1833C34.9262 11.1331 34.9198 11.0817 34.9146 11.0284C34.9116 10.9992 34.8936 10.9732 34.8676 10.9606C34.8418 10.9481 34.8108 10.949 34.7848 10.9647C34.7691 10.9746 34.7557 10.9825 34.7435 10.9896C34.7199 11.0037 34.7019 11.0146 34.6849 11.0269C34.2887 11.3109 33.9393 11.6644 33.6462 12.0775C33.1679 12.7525 32.8897 13.5158 32.8148 14.3556C32.8074 14.262 32.7998 14.1684 32.7923 14.0748L32.7896 14.0408C32.7603 13.6738 32.7299 13.2943 32.7052 12.9211C32.6989 12.8267 32.6808 12.7347 32.6632 12.6458C32.6294 12.4748 32.5973 12.3133 32.6486 12.144C32.6602 12.1058 32.6701 12.0673 32.6799 12.0289C32.7041 11.9337 32.821 11.7871 33.0006 11.6268L33.0074 11.6208C33.0736 11.5646 33.4138 11.2534 33.6068 10.6377C33.8027 10.0122 33.7879 9.35861 33.7771 8.88138L33.7768 8.86866C33.7625 8.21263 33.6916 7.71829 33.547 7.26552C33.5283 7.20762 33.5061 7.15051 33.4826 7.09051C33.4704 7.05928 33.458 7.02699 33.4451 6.99322C33.4346 6.96462 33.4094 6.94383 33.3798 6.93891L33.3653 6.9376C33.3397 6.9376 33.3157 6.94909 33.2995 6.96892L33.1591 7.14007C32.4857 7.96138 32.1548 8.92463 32.1756 10.0031C32.1791 10.1931 32.1934 10.3879 32.2185 10.5891C32.0474 9.99841 31.8467 9.42344 31.6184 8.87032C31.6137 8.85822 31.6106 8.84321 31.6102 8.83049L31.6087 8.75487C31.6063 8.64574 31.6038 8.53284 31.6085 8.42177C31.6092 8.40335 31.6211 8.37028 31.6459 8.33773C31.6812 8.29115 31.7203 8.24561 31.7609 8.19824C31.8299 8.11788 31.9012 8.03489 31.9577 7.94015C32.1397 7.63538 32.2251 7.27535 32.2265 6.80697C32.229 6.25561 32.144 5.67538 31.9587 4.98084C31.8575 4.60194 31.7046 4.1097 31.42 3.66344C31.4007 3.63343 31.3792 3.60518 31.3562 3.57527C31.3458 3.56202 31.3349 3.5479 31.3239 3.53272C31.3077 3.51105 31.2855 3.49842 31.2495 3.49842C31.2208 3.50053 31.1952 3.51684 31.1809 3.5422C30.8237 4.18691 30.6458 4.87565 30.6373 5.64783C30.6301 6.29166 30.7307 6.84566 30.8567 7.28351C30.5359 6.6974 30.1794 6.13112 29.793 5.59397L29.7841 5.58177C29.7753 5.5701 29.7716 5.5644 29.7723 5.56844C29.748 5.39465 29.7311 5.2556 29.7194 5.13454C29.7197 5.1327 29.722 5.12252 29.7401 5.09234C29.7656 5.04883 29.7936 5.00619 29.8233 4.9611C29.883 4.87039 29.9446 4.77652 29.984 4.67142C30.1032 4.3542 30.1299 3.99443 30.0656 3.57194C29.9245 2.63685 29.5122 1.79484 28.8057 0.997662C28.733 0.915812 28.6526 0.843437 28.5676 0.766939L28.5441 0.745621C28.5108 0.71553 28.4767 0.684738 28.4422 0.652191C28.4203 0.631312 28.3889 0.623505 28.3584 0.632453C28.3297 0.641576 28.3075 0.665438 28.3006 0.69509L28.2852 0.762816C28.2747 0.807732 28.2665 0.843174 28.2605 0.878791C28.1654 1.44639 28.1723 2.05434 28.2818 2.73756C28.3904 3.41517 28.6068 3.99961 28.9388 4.50729C28.4409 3.92056 27.9566 3.42789 27.4504 2.99127C27.4481 2.98829 27.4448 2.97925 27.4445 2.97697C27.4841 2.63615 27.4 2.31507 27.1874 1.99539C26.9081 1.57526 26.5201 1.25505 26.0341 1.04381C25.7433 0.917655 25.4419 0.805978 25.1469 0.696582C25.0056 0.644121 24.8643 0.591835 24.7187 0.535777C24.5725 0.477614 24.5099 0.467262 24.476 0.498668C24.4323 0.539374 24.4428 0.574114 24.4619 0.637278L24.468 0.657894C24.6463 1.25865 24.883 1.73378 25.1917 2.1104C25.7585 2.80248 26.4212 3.15409 27.2169 3.18515C27.2448 3.18681 27.2669 3.19453 27.276 3.20155C27.388 3.28542 27.4705 3.35253 27.5434 3.41903C27.7739 3.62975 28.001 3.85424 28.2231 4.09067C27.8927 3.88539 27.4889 3.79275 27.0341 3.81573C26.7852 3.82828 26.5382 3.86477 26.2993 3.90004L26.2902 3.90144C26.2196 3.91179 26.1493 3.92206 26.0792 3.93197C25.9257 3.95276 25.7709 3.97996 25.6342 4.00382C25.5789 4.01373 25.4467 4.04382 25.4162 4.10795C25.4057 4.12988 25.4066 4.15392 25.4185 4.17576C25.429 4.1948 25.4406 4.2127 25.4533 4.22901C25.8478 4.7409 26.2978 5.07804 26.8291 5.25955C27.4769 5.48203 28.0718 5.46369 28.6064 5.202C28.6882 5.157 28.7868 5.13419 28.8995 5.13419C28.9845 5.13419 29.0482 5.14761 29.0694 5.15243C29.1011 5.1577 29.144 5.17542 29.1528 5.18682C29.4853 5.62397 29.8009 6.09085 30.0955 6.58134C29.8466 6.33921 29.5219 6.17595 29.0796 6.06962C28.6919 5.97725 28.2955 5.95742 27.9123 5.93812L27.784 5.93163C27.6638 5.92549 27.5436 5.91786 27.4198 5.91005L27.2123 5.89724C27.1854 5.89724 27.1599 5.91022 27.1443 5.9318C27.127 5.95505 27.1229 5.98523 27.1331 6.01234C27.1414 6.03497 27.1566 6.07489 27.1644 6.08822C27.5685 6.76425 28.0432 7.23184 28.6151 7.51783C29.1743 7.79715 29.6795 7.87102 30.1891 7.74917C30.2481 7.73495 30.3164 7.72741 30.3871 7.72741C30.6038 7.72741 30.755 7.79356 30.7867 7.85479C31.0671 8.43318 31.3173 9.0342 31.5331 9.64724C31.3068 9.33519 30.9903 9.08175 30.5895 8.89217C30.1914 8.70425 29.7769 8.53248 29.3691 8.36343C29.1938 8.29097 29.0178 8.21824 28.8426 8.14385C28.8166 8.13245 28.7858 8.13481 28.7615 8.15087C28.7376 8.16675 28.7234 8.19324 28.7234 8.22175C28.7234 8.27649 29.305 9.89077 30.1498 10.5269C30.4943 10.7864 30.9188 11.0533 31.454 11.0659C31.6142 11.0691 31.7798 11.0918 31.9049 11.234C31.924 11.2566 31.9494 11.2742 31.977 11.2836C32.0197 11.2977 32.0315 11.3238 32.0526 11.4129C32.2259 12.1407 32.3521 12.8909 32.4299 13.6526C32.4064 13.5753 32.3791 13.4972 32.3478 13.4182C32.1587 12.9388 31.8405 12.5193 31.3464 12.0979C31.0918 11.8798 30.8251 11.6687 30.5672 11.4643L30.5549 11.4547C30.4374 11.3616 30.3202 11.2689 30.2034 11.175C30.1792 11.1556 30.1557 11.1356 30.1284 11.1123L30.0555 11.0498C30.03 11.0282 29.992 11.0238 29.9622 11.0387C29.9316 11.0542 29.9132 11.0863 29.9156 11.1206C29.9192 11.1721 29.9221 11.2208 29.9248 11.2676L29.9262 11.2894C29.932 11.3856 29.9374 11.4764 29.9472 11.5661C30.0386 12.4391 30.2982 13.1679 30.7408 13.7942C31.0147 14.1813 31.4078 14.6545 32.0206 14.8783C32.1698 14.9331 32.2779 15.016 32.3938 15.1648C32.5031 15.3041 32.5235 15.4314 32.521 15.5916C32.5106 16.2626 32.4628 16.9283 32.3785 17.5802C32.3587 17.3987 32.317 17.212 32.2528 17.0179C32.1201 16.6161 31.9132 16.2255 31.6203 15.8237C31.3675 15.4758 31.1044 15.1266 30.85 14.7888L30.8331 14.7662C30.7322 14.6324 30.6314 14.4985 30.5332 14.3674C30.5148 14.3405 30.4882 14.3308 30.4728 14.3255C30.4511 14.3149 30.4251 14.3138 30.4021 14.3236C30.3794 14.3333 30.362 14.3523 30.3544 14.3757L30.3514 14.3848C30.3472 14.3971 30.3439 14.4079 30.3421 14.4188C30.1667 15.4651 30.2743 16.4024 30.6711 17.2848C30.8649 17.7162 31.1248 18.2047 31.5831 18.5561C31.7924 18.7166 31.9575 18.9417 32.0483 19.1899C32.0675 19.2433 32.0668 19.2665 32.0646 19.2754C31.8706 20.0788 31.6173 20.8537 31.3092 21.5871C31.3885 21.2006 31.3831 20.7946 31.2926 20.3739C31.1641 19.7777 30.9432 19.2 30.7461 18.7052L30.6871 18.557C30.5947 18.3251 30.5017 18.0914 30.4057 17.8492C30.3935 17.8183 30.3641 17.7971 30.3249 17.7952C30.294 17.7952 30.2655 17.8128 30.2508 17.8414L30.2198 17.8997C30.2062 17.9252 30.1935 17.949 30.1826 17.9735C29.7863 18.8678 29.6524 19.7846 29.785 20.6983C29.8797 21.3517 30.0403 21.8196 30.3056 22.2154C30.4428 22.42 30.5733 22.6479 30.597 22.9282C30.6026 22.9945 30.6 23.0402 30.5704 23.0923C30.2358 23.6782 29.8607 24.2311 29.4499 24.7449C29.4514 24.7421 29.4529 24.7393 29.4545 24.7364C29.7501 24.1963 29.759 23.6123 29.7288 23.1122C29.7028 22.6834 29.6537 22.2553 29.6064 21.8414L29.6036 21.8175C29.5846 21.6517 29.5657 21.486 29.5484 21.3199C29.5384 21.2258 29.5272 21.1316 29.5157 21.0361L29.5006 20.9068C29.4972 20.8782 29.4798 20.8535 29.4547 20.841C29.408 20.8166 29.3325 20.8542 29.2509 20.9507C28.6902 21.6139 28.3423 22.3632 28.2167 23.1781C28.0864 24.023 28.157 24.7461 28.4328 25.3886C28.4402 25.4057 28.44 25.4406 28.4399 25.4523L28.4251 25.822C28.4229 25.8486 28.4089 25.8786 28.3973 25.8897C27.8374 26.4289 27.2211 26.8976 26.5596 27.2877C26.8727 27.0047 27.0978 26.6355 27.2437 26.1675C27.4054 25.6489 27.4884 25.1091 27.5688 24.5857L27.5758 24.5391C27.6043 24.3553 27.6341 24.1717 27.6644 23.9842L27.6987 23.7721C27.7036 23.7413 27.6915 23.7104 27.6675 23.6919C27.6437 23.6729 27.6093 23.6684 27.582 23.6801L27.5521 23.6925C27.5201 23.7056 27.4923 23.7172 27.4661 23.7306C26.2156 24.3552 25.3925 25.8118 25.5088 27.194C25.527 27.4106 25.5072 27.6139 25.4481 27.8153C25.4426 27.8337 25.4248 27.8536 25.4176 27.8569C24.8237 28.1074 24.259 28.2901 23.6908 28.4156C23.6616 28.4223 23.6384 28.4432 23.629 28.4714C23.6194 28.4997 23.6252 28.5305 23.6447 28.5536C23.7064 28.6268 23.7602 28.7055 23.8044 28.7879C23.8226 28.8216 23.8658 28.8388 23.8982 28.8304C24.3611 28.7248 24.812 28.588 25.2386 28.4236C25.2731 28.4098 25.2994 28.4032 25.324 28.4072C25.419 28.4199 25.5192 28.4393 25.6306 28.467C25.6535 28.4726 25.6726 28.4832 25.6729 28.4822C25.9161 28.967 26.334 29.2758 26.951 29.4261C27.0853 29.4583 27.2237 29.4821 27.3625 29.4966C27.5078 29.512 27.6698 29.5198 27.8439 29.5198C28.0852 29.5198 28.2572 29.5049 28.2593 29.5047C28.7941 29.4449 29.2508 29.3245 29.6553 29.1367C29.8213 29.0597 30.0104 28.9561 30.1558 28.7711C30.1836 28.7357 30.179 28.6845 30.1452 28.6548C29.7343 28.2922 29.3159 28.0288 28.8659 27.8495C28.1993 27.5845 27.5921 27.5128 26.9968 27.6272C26.9079 27.6445 26.821 27.6663 26.7366 27.6913C27.2934 27.3584 27.8266 26.9673 28.33 26.5216C28.3397 26.5128 28.3555 26.5051 28.3679 26.5029C28.4503 26.4892 28.5597 26.4724 28.6716 26.4643C28.682 26.4643 28.6951 26.4693 28.6966 26.4699C29 26.8094 29.3908 26.9744 29.8915 26.9744C29.917 26.9744 29.9426 26.9738 29.9682 26.973C30.5125 26.9554 31.0597 26.8058 31.595 26.5282C31.984 26.3253 32.3894 26.089 32.7182 25.7367C32.7911 25.6584 32.8562 25.5698 32.9137 25.4916L32.9193 25.484C32.9447 25.4495 32.9704 25.4148 32.9969 25.3805C33.0112 25.3619 33.0173 25.3381 33.0135 25.314C33.0095 25.2909 32.9961 25.2703 32.9732 25.2554C32.9674 25.2522 32.8282 25.1775 32.701 25.1283C31.8499 24.7994 30.9906 24.7657 30.1709 25.0299C29.9025 25.1161 29.65 25.2456 29.4041 25.4246C29.8588 24.8959 30.2799 24.3164 30.6623 23.6928C30.6664 23.6863 30.6773 23.6685 30.6808 23.6652C30.7142 23.6439 30.7484 23.6237 30.7825 23.6038C30.8437 23.5679 30.907 23.5308 30.9665 23.4866C31.0167 23.4491 31.0308 23.4482 31.0815 23.4808C31.1533 23.5274 31.2367 23.5516 31.3094 23.5706C31.7349 23.6796 32.1638 23.6253 32.6382 23.4025C33.0716 23.1994 33.4048 22.8782 33.7004 22.5615C34.1305 22.0995 34.4115 21.6827 34.5848 21.2497C34.6212 21.1588 34.6472 21.0649 34.6742 20.9666C34.6853 20.9254 34.6967 20.8842 34.7089 20.8436C34.7221 20.8001 34.6989 20.7541 34.656 20.7389L34.6203 20.7362C34.445 20.7362 32.8806 20.7619 31.9656 21.6497C31.7666 21.8428 31.5881 22.0481 31.4252 22.2729C31.7872 21.5063 32.0941 20.6984 32.3415 19.8598L32.3451 19.8476C32.3481 19.8373 32.3526 19.8218 32.3556 19.8176L32.5949 19.4889C32.6038 19.4758 32.6049 19.4758 32.6189 19.4758C32.6252 19.4758 32.632 19.4762 32.6398 19.4767L32.6909 19.4797C32.869 19.4908 32.9739 19.4892 33.0601 19.4757C33.4008 19.4219 33.7084 19.2503 34.0003 18.951C34.6829 18.2509 35.1528 17.3775 35.4366 16.2811C35.4671 16.1636 35.4756 16.045 35.4847 15.9192C35.4888 15.8622 35.4932 15.8034 35.4997 15.7427C35.5024 15.7136 35.491 15.6858 35.4691 15.6676Z" fill="white"/>
<path d="M12.3088 28.4148C11.7411 28.2895 11.1765 28.1067 10.5824 27.8563C10.5753 27.8529 10.5577 27.833 10.5521 27.8151C10.4929 27.6133 10.4731 27.4099 10.4914 27.1934C10.6077 25.8111 9.78453 24.3545 8.53433 23.7301C8.50775 23.7166 8.48003 23.7049 8.44809 23.6918L8.41844 23.6796C8.39028 23.6675 8.35598 23.6725 8.33326 23.6908C8.30869 23.7097 8.2965 23.7406 8.3015 23.7716L8.33571 23.9835C8.36607 24.1711 8.39581 24.3546 8.42432 24.5383L8.43151 24.5864C8.51178 25.1085 8.59477 25.6483 8.75646 26.167C8.90235 26.6349 9.12745 27.0042 9.44055 27.2871C8.77909 26.897 8.16272 26.4283 7.60293 25.8892C7.59117 25.8779 7.57722 25.8479 7.57521 25.8232L7.5602 25.4532C7.56012 25.4401 7.55994 25.4052 7.5674 25.3879C7.84312 24.7455 7.91375 24.0225 7.78347 23.1776C7.65785 22.3627 7.30992 21.6133 6.74925 20.9502C6.68363 20.8725 6.62573 20.8332 6.57713 20.8332C6.56529 20.8332 6.55458 20.8356 6.54616 20.84C6.52037 20.8528 6.50291 20.8776 6.49949 20.9063L6.48449 21.0354C6.47291 21.1312 6.46177 21.2252 6.45177 21.3194C6.43449 21.4854 6.41554 21.6511 6.3965 21.8169L6.39378 21.8409C6.34641 22.2549 6.29728 22.683 6.27131 23.1116C6.24113 23.6117 6.25008 24.1957 6.54564 24.7359C6.54722 24.7386 6.54862 24.7415 6.5502 24.7442C6.13937 24.2305 5.76434 23.6776 5.42974 23.0918C5.40018 23.0397 5.39763 22.994 5.40316 22.9276C5.42694 22.6472 5.5573 22.4193 5.69459 22.2149C5.95979 21.819 6.12033 21.3512 6.21517 20.6978C6.34772 19.784 6.21385 18.8674 5.8175 17.9731C5.80662 17.9484 5.7939 17.9246 5.7803 17.8991L5.74933 17.8407C5.73451 17.8122 5.70284 17.7934 5.66941 17.7949C5.63608 17.7966 5.60669 17.8178 5.59458 17.8485C5.49843 18.091 5.40544 18.3246 5.31307 18.5565L5.25402 18.7046C5.05699 19.1995 4.836 19.7773 4.70757 20.3734C4.61704 20.794 4.61151 21.2 4.6909 21.5866C4.3828 20.8532 4.12953 20.0784 3.93557 19.2749C3.93338 19.2659 3.93267 19.2427 3.95189 19.1893C4.0426 18.941 4.20779 18.7159 4.41711 18.5555C4.87531 18.2041 5.13524 17.7156 5.32903 17.2841C5.72582 16.4018 5.83347 15.4644 5.65801 14.4183C5.65617 14.4073 5.65283 14.3964 5.64889 14.3846L5.64573 14.3751C5.6381 14.3517 5.62073 14.3327 5.59774 14.3228C5.57528 14.3134 5.54703 14.3152 5.52958 14.3238C5.51203 14.3302 5.48545 14.3399 5.46817 14.3653C5.36886 14.4979 5.26806 14.6318 5.16717 14.7656L5.15024 14.7881C4.89583 15.126 4.63274 15.4751 4.37991 15.823C4.08699 16.2248 3.88013 16.6155 3.74739 17.0173C3.68335 17.2113 3.64151 17.3981 3.62177 17.5795C3.53746 16.9276 3.48965 16.262 3.47921 15.5909C3.47675 15.4307 3.49711 15.3034 3.6065 15.164C3.7223 15.0154 3.83047 14.9324 3.97961 14.8777C4.59238 14.6538 4.98549 14.1807 5.25946 13.7936C5.70205 13.1673 5.96163 12.4385 6.05305 11.5656C6.06278 11.4758 6.06831 11.3849 6.07401 11.2888L6.07542 11.2669C6.07814 11.2202 6.08103 11.1715 6.08472 11.1199C6.087 11.0857 6.06866 11.0536 6.03804 11.038C6.00839 11.0231 5.97041 11.0275 5.94462 11.0494L5.87189 11.1116C5.84452 11.135 5.82109 11.155 5.79679 11.1745C5.68003 11.2682 5.56283 11.361 5.44536 11.4541L5.43308 11.4638C5.17525 11.668 4.90855 11.8792 4.65388 12.0973C4.15971 12.5187 3.84153 12.9382 3.65247 13.4176C3.62124 13.4967 3.59387 13.5749 3.57036 13.6522C3.64809 12.8904 3.77433 12.1402 3.94768 11.4123C3.96873 11.3232 3.98049 11.2971 4.02374 11.2829C4.05093 11.2737 4.07628 11.256 4.09479 11.234C4.22051 11.0911 4.38605 11.0685 4.54642 11.0652C5.08155 11.0527 5.50598 10.7857 5.85048 10.5262C6.69521 9.89004 7.27684 8.27585 7.27684 8.22111C7.27684 8.1926 7.26263 8.16602 7.23851 8.14996C7.21473 8.13426 7.18263 8.13207 7.15841 8.14286C6.98243 8.21751 6.80645 8.29024 6.62424 8.3656C6.22333 8.53184 5.80881 8.70361 5.41071 8.89144C5.01006 9.08101 4.69345 9.33455 4.46711 9.64651C4.68283 9.03355 4.93294 8.43262 5.21297 7.85511C5.24516 7.79282 5.39641 7.72668 5.61327 7.72668C5.6838 7.72668 5.75214 7.73422 5.81118 7.74843C6.3207 7.87055 6.82593 7.79651 7.3851 7.5171C7.95717 7.23111 8.43178 6.76352 8.83602 6.08723C8.84374 6.07416 8.85892 6.03424 8.86708 6.01187C8.87734 5.9845 8.87322 5.95432 8.8562 5.93142C8.84041 5.90967 8.81515 5.89668 8.78295 5.89668C8.78269 5.89668 8.78251 5.89668 8.78225 5.89668L8.5803 5.9094C8.45652 5.91721 8.33633 5.92484 8.21614 5.93098L8.0878 5.93748C7.7046 5.95678 7.30825 5.9766 6.9205 6.06898C6.47826 6.17531 6.15358 6.33857 5.90461 6.58069C6.19929 6.09021 6.51484 5.6235 6.84724 5.18635C6.85619 5.17477 6.89909 5.15705 6.93427 5.15118C6.95181 5.14705 7.01568 5.13363 7.1006 5.13363C7.21324 5.13363 7.31185 5.15653 7.39545 5.2025C7.92664 5.46226 8.52319 5.48156 9.17088 5.25908C9.70216 5.07757 10.1521 4.74044 10.5465 4.22872C10.5593 4.21223 10.5709 4.19425 10.5814 4.1753C10.5935 4.15345 10.5943 4.12941 10.5837 4.10748C10.5532 4.04344 10.4211 4.01335 10.3655 4.00335C10.229 3.97949 10.0743 3.95229 9.92095 3.9315C9.85068 3.92168 9.78032 3.91141 9.70979 3.90097L9.70075 3.89957C9.46178 3.8643 9.21474 3.82781 8.96586 3.81526C8.51108 3.79201 8.10727 3.88483 7.7768 4.09029C7.99902 3.85378 8.22606 3.62937 8.4566 3.41856C8.5295 3.35206 8.61197 3.28504 8.72435 3.20091C8.73303 3.19424 8.75514 3.18643 8.78225 3.18485C9.57872 3.15371 10.2415 2.8021 10.8082 2.1101C11.1169 1.7334 11.3536 1.25827 11.532 0.657514L11.5381 0.636898C11.5572 0.573734 11.5677 0.538994 11.5239 0.498288C11.4901 0.466882 11.4307 0.476181 11.2761 0.537415C11.1357 0.591368 10.9945 0.643741 10.8495 0.697518C10.5581 0.80551 10.2568 0.917187 9.96595 1.04334C9.47994 1.25459 9.09184 1.57479 8.8126 1.99492C8.59995 2.3146 8.51591 2.63577 8.55547 2.9751C8.55521 2.97887 8.55188 2.98791 8.55135 2.98896C8.04402 3.42698 7.55906 3.9201 7.06112 4.50699C7.39317 3.99932 7.60959 3.41479 7.7182 2.73718C7.82768 2.05405 7.83462 1.44601 7.73952 0.878411C7.73347 0.842882 7.72531 0.807352 7.71487 0.762875L7.69934 0.694359C7.69232 0.664971 7.67021 0.641197 7.64118 0.632073C7.61214 0.623476 7.57959 0.631108 7.55792 0.651724C7.52318 0.684446 7.48914 0.715326 7.4559 0.745329L7.43247 0.766471C7.34738 0.843145 7.26702 0.91552 7.19429 0.99737C6.48765 1.79455 6.0755 2.63656 5.93435 3.57156C5.87005 3.99414 5.89672 4.35391 6.01594 4.67113C6.05542 4.77623 6.117 4.8701 6.17832 4.96326C6.20639 5.00581 6.23447 5.04853 6.26017 5.0924C6.27912 5.12389 6.2807 5.13205 6.28061 5.13056C6.26894 5.25557 6.25219 5.39488 6.22955 5.56209C6.22859 5.5642 6.22543 5.56911 6.21534 5.58244L6.20718 5.59376C5.82074 6.13092 5.46422 6.6972 5.1434 7.2833C5.26955 6.84554 5.37 6.29146 5.36289 5.64763C5.3543 4.87536 5.17647 4.18661 4.81907 3.54173C4.80495 3.51664 4.77933 3.50032 4.74345 3.49787C4.7174 3.49787 4.69231 3.51076 4.6759 3.53278C4.6652 3.54769 4.65432 3.56173 4.64397 3.57507C4.6209 3.60489 4.59932 3.63314 4.58002 3.66332C4.29543 4.10959 4.14278 4.60165 4.04146 4.98055C3.85626 5.67544 3.77117 6.25566 3.77362 6.80668C3.77503 7.27506 3.86039 7.63509 4.04233 7.93977C4.09892 8.0346 4.17015 8.11759 4.24174 8.20111C4.27972 8.24541 4.31876 8.29094 4.35412 8.33761C4.37886 8.37007 4.39079 8.40314 4.39149 8.42157C4.39614 8.53263 4.39368 8.64553 4.39131 8.75467L4.38965 8.83011C4.38938 8.8431 4.3864 8.85801 4.38193 8.86942C4.15348 9.42289 3.95268 9.99812 3.78143 10.5889C3.80661 10.3877 3.82082 10.193 3.82442 10.0029C3.84512 8.92442 3.5143 7.96126 2.84091 7.13987L2.70054 6.96889C2.68431 6.9488 2.66028 6.93739 2.63466 6.93739L2.62062 6.93862C2.59062 6.94362 2.56535 6.96441 2.55491 6.99275C2.54211 7.02688 2.52956 7.05907 2.51737 7.09022C2.49386 7.1504 2.47166 7.20742 2.45289 7.26541C2.3084 7.71799 2.23752 8.21242 2.22313 8.86827L2.22287 8.88108C2.21208 9.35823 2.19725 10.0119 2.39323 10.6374C2.58615 11.2531 2.92635 11.5643 2.99232 11.6202L2.99934 11.6265C3.17892 11.7868 3.29586 11.9334 3.32007 12.0286C3.32981 12.067 3.33972 12.1055 3.3513 12.1436C3.40254 12.313 3.37052 12.4744 3.33595 12.6487C3.31876 12.7367 3.30086 12.8276 3.29463 12.9208C3.26989 13.294 3.23954 13.6735 3.21015 14.0405L3.20752 14.0745C3.19997 14.1681 3.19243 14.2617 3.18497 14.3553C3.11005 13.5155 2.83196 12.7522 2.35349 12.0772C2.06048 11.6641 1.71115 11.3108 1.31498 11.0266C1.29787 11.0144 1.27988 11.0034 1.25585 10.9891C1.24418 10.9823 1.23067 10.9743 1.21426 10.964C1.18952 10.9492 1.15777 10.9479 1.13224 10.9603C1.1061 10.973 1.08811 10.9989 1.08513 11.0282C1.07978 11.0813 1.07355 11.1327 1.06697 11.186C1.05372 11.2953 1.04118 11.3984 1.04065 11.5044C1.03477 12.6029 1.26716 13.6323 1.73159 14.5636C1.86099 14.8235 2.03197 15.0482 2.23997 15.2319C2.44622 15.4131 2.66878 15.5199 2.91995 15.5584C2.92548 15.5593 2.93863 15.5673 2.94065 15.5689C2.95425 15.5962 2.96837 15.6235 2.9825 15.651C3.03268 15.7479 3.08453 15.8482 3.11032 15.9488C3.13181 16.0338 3.13181 16.1267 3.13181 16.2251C3.13181 16.2612 3.13181 16.2975 3.13295 16.3331C3.15708 17.184 3.18875 17.4804 3.3249 18.2407C3.24182 18.0146 3.13751 17.788 3.00285 17.5699C2.45754 16.6872 1.76475 16.0882 0.884935 15.7386C0.828965 15.716 0.772819 15.6998 0.707726 15.6808L0.694742 15.677C0.668336 15.6693 0.640351 15.661 0.610436 15.6519C0.583416 15.643 0.552624 15.6491 0.530604 15.6673C0.508672 15.6855 0.49718 15.7133 0.500075 15.7422C0.506567 15.8026 0.511041 15.8613 0.515164 15.9186C0.5242 16.0442 0.532709 16.1628 0.563151 16.2802C0.847037 17.3767 1.3169 18.25 1.99951 18.9502C2.29138 19.2495 2.59895 19.4211 2.93977 19.4749C3.02575 19.4883 3.13085 19.49 3.30876 19.4789L3.35999 19.4758C3.3678 19.4754 3.37464 19.475 3.38087 19.475C3.39491 19.475 3.39605 19.475 3.40578 19.4893L3.64414 19.8167C3.64721 19.821 3.65168 19.8365 3.65475 19.8472L3.65826 19.8589C3.90565 20.6976 4.21261 21.5054 4.57458 22.2721C4.41167 22.0472 4.23314 21.8419 4.03417 21.6488C3.11918 20.761 1.55482 20.7353 1.37945 20.7353L1.35761 20.7355L1.34384 20.7381C1.30085 20.7533 1.2776 20.7993 1.29085 20.8425C1.30304 20.8833 1.31445 20.9246 1.32752 20.973C1.35252 21.064 1.37849 21.1579 1.4149 21.2488C1.58825 21.682 1.86924 22.0987 2.29936 22.5607C2.59492 22.8774 2.92811 23.1986 3.36139 23.4016C3.83591 23.6245 4.26437 23.6789 4.69046 23.5697C4.76293 23.5507 4.84627 23.5266 4.91794 23.4801C4.969 23.4473 4.98295 23.4484 5.03313 23.4858C5.09261 23.53 5.15586 23.5671 5.21727 23.6031C5.25122 23.623 5.28543 23.6431 5.31736 23.6632C5.32245 23.6675 5.33333 23.6853 5.33737 23.6919C5.71968 24.3155 6.14086 24.895 6.59564 25.4237C6.34965 25.2447 6.09709 25.1152 5.82881 25.029C5.009 24.7648 4.14971 24.7984 3.29867 25.1275C3.17164 25.1767 3.03242 25.2513 3.02312 25.2565C3.00364 25.2694 2.99022 25.2901 2.98601 25.3138C2.98232 25.3372 2.98838 25.361 3.00259 25.3793C3.02917 25.4138 3.05487 25.4486 3.08031 25.4831L3.08593 25.4906C3.14339 25.5689 3.20848 25.6574 3.28147 25.7358C3.61019 26.0882 4.01558 26.3245 4.40474 26.5273C4.93987 26.8049 5.48712 26.9545 6.03138 26.9721C6.05699 26.9729 6.08261 26.9735 6.10814 26.9735C6.6088 26.9735 6.99963 26.8084 7.30088 26.471C7.30457 26.4683 7.31764 26.4633 7.32483 26.4632C7.43993 26.4715 7.54933 26.4882 7.63109 26.5018C7.64398 26.5041 7.65986 26.5118 7.66978 26.5208C8.17307 26.9664 8.7061 27.3574 9.26291 27.6903C9.17851 27.6653 9.09157 27.6435 9.00262 27.6261C8.40756 27.5117 7.80031 27.5834 7.1335 27.8484C6.68363 28.0277 6.26526 28.2911 5.85443 28.6537C5.82057 28.6834 5.81583 28.7346 5.84373 28.77C5.98909 28.955 6.17823 29.0587 6.34413 29.1355C6.74872 29.3235 7.20543 29.4439 7.74084 29.5037C7.74241 29.5038 7.91445 29.5187 8.1557 29.5187C8.32984 29.5187 8.49187 29.5109 8.63706 29.4955C8.77584 29.481 8.91428 29.4572 9.04859 29.4249C9.66549 29.2747 10.0835 28.9659 10.323 28.4865C10.3273 28.4824 10.3457 28.4717 10.3691 28.466C10.4804 28.4383 10.5806 28.4189 10.6758 28.4061C10.6983 28.4025 10.7263 28.4086 10.7616 28.4228C11.1876 28.5869 11.6384 28.7237 12.1006 28.8292C12.1071 28.8307 12.1139 28.8315 12.1206 28.8315C12.1517 28.8315 12.1803 28.8144 12.1954 28.7865C12.2395 28.7044 12.2933 28.6256 12.3551 28.5524C12.3745 28.5293 12.3803 28.4986 12.3707 28.4702C12.3616 28.4426 12.3385 28.4218 12.3088 28.4148Z" fill="white"/>
<path d="M22.1612 17.0932L25.6861 13.6573C25.8056 13.5408 25.8487 13.3664 25.7971 13.2077C25.7455 13.0488 25.6083 12.933 25.443 12.9091L20.5721 12.2017L18.3934 7.78789C18.3195 7.63814 18.1671 7.5434 18.0001 7.5434C17.8332 7.5434 17.6806 7.63832 17.6068 7.78789L15.4289 12.2017L10.5572 12.9091C10.392 12.933 10.2547 13.0489 10.2032 13.2077C10.1515 13.3664 10.1946 13.5408 10.3141 13.6573L13.839 17.0932L13.0074 21.9445C12.9791 22.109 13.0468 22.2753 13.1819 22.3734C13.3168 22.4715 13.4957 22.4845 13.6437 22.4068L18.0003 20.1167L22.3568 22.4068C22.421 22.4406 22.4911 22.4571 22.5608 22.4571C22.6518 22.4571 22.7422 22.4289 22.8186 22.3734C22.9537 22.2754 23.0215 22.109 22.9931 21.9445L22.1612 17.0932Z" fill="white"/>
</svg>
