<svg width="40" height="36" viewBox="0 0 40 36" fill="none" xmlns="http://www.w3.org/2000/svg">
<path d="M38 12C38.5304 12 39.0391 11.7893 39.4142 11.4142C39.7893 11.0391 40 10.5304 40 10C40 9.46957 39.7893 8.96086 39.4142 8.58579C39.0391 8.21071 38.5304 8 38 8H36V4H38C38.5304 4 39.0391 3.78929 39.4142 3.41421C39.7893 3.03914 40 2.53043 40 2C40 1.46957 39.7893 0.960859 39.4142 0.585786C39.0391 0.210714 38.5304 0 38 0H2C1.46957 0 0.960859 0.210714 0.585786 0.585786C0.210714 0.960859 0 1.46957 0 2C0 2.53043 0.210714 3.03914 0.585786 3.41421C0.960859 3.78929 1.46957 4 2 4H8V8H2C1.46957 8 0.960859 8.21071 0.585786 8.58579C0.210714 8.96086 0 9.46957 0 10C0 10.5304 0.210714 11.0391 0.585786 11.4142C0.960859 11.7893 1.46957 12 2 12H4V16H2C1.46957 16 0.960859 16.2107 0.585786 16.5858C0.210714 16.9609 0 17.4696 0 18C0 18.5304 0.210714 19.0391 0.585786 19.4142C0.960859 19.7893 1.46957 20 2 20H8V24H2C1.46957 24 0.960859 24.2107 0.585786 24.5858C0.210714 24.9609 0 25.4696 0 26C0 26.5304 0.210714 27.0391 0.585786 27.4142C0.960859 27.7893 1.46957 28 2 28H4V32H2C1.46957 32 0.960859 32.2107 0.585786 32.5858C0.210714 32.9609 0 33.4696 0 34C0 34.5304 0.210714 35.0391 0.585786 35.4142C0.960859 35.7893 1.46957 36 2 36H38C38.5304 36 39.0391 35.7893 39.4142 35.4142C39.7893 35.0391 40 34.5304 40 34C40 33.4696 39.7893 32.9609 39.4142 32.5858C39.0391 32.2107 38.5304 32 38 32H32V28H38C38.5304 28 39.0391 27.7893 39.4142 27.4142C39.7893 27.0391 40 26.5304 40 26C40 25.4696 39.7893 24.9609 39.4142 24.5858C39.0391 24.2107 38.5304 24 38 24H36V20H38C38.5304 20 39.0391 19.7893 39.4142 19.4142C39.7893 19.0391 40 18.5304 40 18C40 17.4696 39.7893 16.9609 39.4142 16.5858C39.0391 16.2107 38.5304 16 38 16H32V12H38ZM12 4H20V8H12V4ZM28 12V16H20V12H28ZM8 12H16V16H8V12ZM20 20V24H12V20H20ZM16 32H8V28H16V32ZM28 32H20V28H28V32ZM32 24H24V20H32V24ZM24 8V4H32V8H24Z" fill="#616161"/>
</svg>
