<svg width="32" height="30" viewBox="0 0 32 30" fill="none" xmlns="http://www.w3.org/2000/svg">
<path d="M27.3152 16.5478C26.983 16.5478 26.6358 16.4421 26.3036 16.3666C25.631 16.2184 24.97 16.0216 24.3258 15.7778C23.6254 15.523 22.8555 15.5362 22.1643 15.8149C21.473 16.0937 20.9093 16.6182 20.5815 17.2876L20.2494 17.967C18.7788 17.1489 17.4276 16.1329 16.2333 14.9474C15.0478 13.7532 14.0318 12.4019 13.2138 10.9314L13.8479 10.5086C14.5173 10.1809 15.0418 9.61713 15.3205 8.92589C15.5992 8.23465 15.6125 7.46475 15.3577 6.76434C15.1179 6.11878 14.9212 5.45806 14.7688 4.78651C14.6933 4.45436 14.633 4.10711 14.5877 3.75985C14.4043 2.69639 13.8473 1.73333 13.0169 1.0441C12.1865 0.354882 11.1373 -0.0152094 10.0583 0.000479061H5.52893C4.87825 -0.00563036 4.2339 0.128529 3.63974 0.393825C3.04558 0.659121 2.51555 1.04932 2.08575 1.53787C1.65594 2.02642 1.33644 2.60184 1.14901 3.22496C0.961574 3.84808 0.9106 4.50427 0.999558 5.14886C1.80388 11.4739 4.69255 17.3508 9.20927 21.8511C13.726 26.3514 19.6133 29.2187 25.9413 30H26.515C27.6283 30.0016 28.7033 29.5931 29.5346 28.8526C30.0122 28.4253 30.3938 27.9017 30.654 27.3161C30.9143 26.7305 31.0473 26.0963 31.0444 25.4555V20.9262C31.0259 19.8774 30.644 18.8676 29.9639 18.0691C29.2838 17.2706 28.3476 16.7329 27.3152 16.5478V16.5478ZM28.0701 25.6065C28.0698 25.8209 28.0239 26.0327 27.9354 26.228C27.8469 26.4232 27.7178 26.5974 27.5568 26.7388C27.3886 26.8853 27.1913 26.9946 26.978 27.0597C26.7647 27.1247 26.54 27.144 26.3187 27.1163C20.6644 26.3913 15.4124 23.8046 11.391 19.7641C7.36966 15.7236 4.80787 10.4593 4.10972 4.80161C4.0857 4.58045 4.10675 4.35672 4.17163 4.14393C4.2365 3.93114 4.34385 3.73372 4.48717 3.56358C4.62865 3.40253 4.80281 3.27346 4.99805 3.18495C5.19329 3.09644 5.40515 3.05053 5.61951 3.05025H10.1489C10.5 3.04244 10.8428 3.15727 11.1184 3.37497C11.394 3.59266 11.585 3.89962 11.6587 4.24299C11.7191 4.65566 11.7946 5.06331 11.8851 5.46592C12.0596 6.26179 12.2917 7.04392 12.5796 7.80609L10.4659 8.78745C10.2852 8.87037 10.1226 8.98817 9.98757 9.13409C9.8525 9.28001 9.74758 9.45118 9.67884 9.63776C9.6101 9.82434 9.57889 10.0227 9.58701 10.2213C9.59513 10.42 9.64241 10.6151 9.72614 10.7955C11.899 15.4498 15.6404 19.1911 20.2947 21.364C20.6622 21.515 21.0745 21.515 21.4421 21.364C21.6304 21.2967 21.8034 21.1926 21.9512 21.0578C22.0989 20.923 22.2184 20.7602 22.3027 20.5789L23.2388 18.4652C24.0193 18.7443 24.8159 18.9762 25.6242 19.1597C26.0268 19.2503 26.4345 19.3258 26.8472 19.3862C27.1905 19.4598 27.4975 19.6509 27.7152 19.9265C27.9329 20.202 28.0477 20.5449 28.0399 20.896L28.0701 25.6065Z" fill="#333333"/>
</svg>
