<svg width="20" height="16" viewBox="0 0 20 16" fill="none" xmlns="http://www.w3.org/2000/svg">
<path d="M19.7029 2.11464C19.0071 2.42297 18.2596 2.6313 17.4738 2.72547C18.2846 2.2403 18.8912 1.47669 19.1804 0.577138C18.4186 1.02963 17.5849 1.34813 16.7154 1.5188C16.1307 0.894525 15.3563 0.480743 14.5124 0.341699C13.6684 0.202656 12.8022 0.346131 12.0481 0.749848C11.2941 1.15357 10.6944 1.79494 10.3422 2.57439C9.99003 3.35384 9.90503 4.22776 10.1004 5.06047C8.55682 4.98297 7.04677 4.58176 5.66827 3.88289C4.28977 3.18402 3.07362 2.20311 2.09875 1.0038C1.76542 1.5788 1.57375 2.24547 1.57375 2.95547C1.57338 3.59463 1.73078 4.22401 2.03198 4.78775C2.33319 5.35149 2.76888 5.83217 3.30042 6.18714C2.68398 6.16752 2.08114 6.00096 1.54208 5.7013V5.7513C1.54202 6.64775 1.85211 7.51662 2.41974 8.21047C2.98736 8.90432 3.77756 9.38041 4.65625 9.55797C4.0844 9.71273 3.48486 9.73553 2.90292 9.62464C3.15083 10.396 3.63375 11.0705 4.28406 11.5537C4.93437 12.037 5.71951 12.3048 6.52958 12.3196C5.15444 13.3991 3.45616 13.9847 1.70792 13.9821C1.39823 13.9822 1.08881 13.9641 0.78125 13.928C2.55581 15.0689 4.62153 15.6745 6.73125 15.6721C13.8729 15.6721 17.7771 9.75714 17.7771 4.62714C17.7771 4.46047 17.7729 4.29214 17.7654 4.12547C18.5248 3.57628 19.1803 2.89622 19.7013 2.11714L19.7029 2.11464Z" fill="#333333"/>
</svg>
