<svg width="20" height="13" viewBox="0 0 20 13" fill="none" xmlns="http://www.w3.org/2000/svg">
<path d="M19.5414 1.31264C19.6812 0.843808 19.5414 0.5 18.8807 0.5H16.6919C16.135 0.5 15.8805 0.797429 15.7407 1.1241C15.7407 1.1241 14.6279 3.86548 13.0509 5.643C12.5419 6.16022 12.3093 6.32356 12.0319 6.32356C11.8931 6.32356 11.6915 6.16023 11.6915 5.6914V1.31264C11.6915 0.750042 11.5308 0.5 11.0667 0.5H7.62734C7.28001 0.5 7.07041 0.760125 7.07041 1.00815C7.07041 1.5405 7.85889 1.6635 7.93974 3.16375V6.41833C7.93974 7.13115 7.81298 7.26122 7.53352 7.26122C6.79194 7.26122 4.98741 4.50975 3.91647 1.36002C3.70787 0.748026 3.49728 0.501009 2.93835 0.501009H0.750557C0.12476 0.501009 0 0.798438 0 1.12511C0 1.7119 0.741575 4.61561 3.45436 8.45597C5.26288 11.0784 7.80899 12.5 10.1285 12.5C11.5189 12.5 11.6905 12.1844 11.6905 11.64V9.65779C11.6905 9.02663 11.8233 8.8996 12.2634 8.8996C12.5868 8.8996 13.1437 9.06495 14.4422 10.3283C15.9254 11.8265 16.1709 12.499 17.0043 12.499H19.1921C19.8169 12.499 20.1293 12.1834 19.9497 11.5603C19.753 10.9403 19.0444 10.0379 18.1042 8.97017C17.5932 8.3612 16.8296 7.70585 16.5971 7.37817C16.2727 6.95572 16.3665 6.7692 16.5971 6.39414C16.5981 6.39514 19.264 2.60217 19.5414 1.31264Z" fill="#333333"/>
</svg>
