<?xml version="1.0" standalone="no"?>
<!DOCTYPE svg PUBLIC "-//W3C//DTD SVG 20010904//EN"
 "http://www.w3.org/TR/2001/REC-SVG-20010904/DTD/svg10.dtd">
<svg version="1.0" xmlns="http://www.w3.org/2000/svg"
 width="700.000000pt" height="700.000000pt" viewBox="0 0 700.000000 700.000000"
 preserveAspectRatio="xMidYMid meet">
<metadata>
Created by potrace 1.14, written by Peter Selinger 2001-2017
</metadata>
<g transform="translate(0.000000,700.000000) scale(0.100000,-0.100000)"
fill="#000000" stroke="none">
<path d="M2605 6228 c4 -18 42 -194 86 -390 43 -197 79 -362 79 -368 0 -7
-192 -10 -560 -10 -308 0 -560 -2 -560 -4 0 -3 38 -178 85 -391 47 -212 85
-390 85 -395 0 -6 -210 -10 -561 -10 -529 0 -560 -1 -555 -17 3 -10 197 -884
431 -1943 234 -1059 428 -1933 431 -1942 5 -17 88 -18 1555 -18 852 0 1549 4
1549 8 0 4 -38 180 -85 390 -47 210 -85 386 -85 392 0 7 187 10 560 10 308 0
560 1 560 3 0 1 -40 180 -89 397 l-88 395 559 3 c379 1 558 6 558 13 0 5 -192
875 -426 1932 -234 1057 -428 1934 -431 1950 l-5 27 -1550 0 -1550 0 7 -32z"/>
</g>
</svg>
